<mxfile host="app.diagrams.net" modified="2023-07-01T02:07:56.043Z" agent="Mozilla/5.0 (X11; Linux aarch64) AppleWebKit/537.36 (KHTML, like Gecko) Chrome/86.0.4240.198 Safari/537.36" etag="geeYUj0IMc5UyJAe0rwj" version="21.5.1" type="github">
  <diagram name="é¡µ-1" id="TWYz8sB6Ycy4o-8N4Z2P">
    <mxGraphModel dx="2196" dy="1891" grid="1" gridSize="10" guides="1" tooltips="1" connect="1" arrows="1" fold="1" page="1" pageScale="1" pageWidth="827" pageHeight="1169" math="0" shadow="0">
      <root>
        <mxCell id="0" />
        <mxCell id="1" parent="0" />
        <mxCell id="De4PDz4b7LUJne9OW4_j-1" value="" style="group" vertex="1" connectable="0" parent="1">
          <mxGeometry x="-40" y="-120" width="1568.83" height="440" as="geometry" />
        </mxCell>
        <UserObject label="" tags="Background" id="p8jLqkasfTIFGXJYe00s-1">
          <mxCell style="vsdxID=1;fillColor=none;gradientColor=none;points=[];labelBackgroundColor=none;rounded=0;strokeColor=none;html=1;whiteSpace=wrap;" parent="De4PDz4b7LUJne9OW4_j-1" vertex="1">
            <mxGeometry x="441.3623400525855" y="226.8679103778007" width="255.74266432953553" height="87.99725008593482" as="geometry" />
          </mxCell>
        </UserObject>
        <mxCell id="p8jLqkasfTIFGXJYe00s-2" style="vsdxID=2;fillColor=none;gradientColor=none;strokeOpacity=0;shape=stencil(UzV2Ls5ILEhVNTIoLinKz04tz0wpyVA1dlE1MsrMy0gtyiwBslSNXVWNndPyi1LTi/JL81Ig/IJEkEoQKze/DGRCBUSfAUiHkUElMs8NojAnMw+nQkMDPEphkmQpJtoJKAqBDIQPgRx07wOFIEFn7AoA);strokeWidth=0;spacingTop=-3;spacingBottom=-3;spacingLeft=-3;spacingRight=-3;points=[];labelBackgroundColor=none;rounded=0;html=1;whiteSpace=wrap;" parent="p8jLqkasfTIFGXJYe00s-1" vertex="1">
          <mxGeometry width="255.74266432953553" height="87.99725008593482" as="geometry" />
        </mxCell>
        <UserObject label="&lt;div style=&quot;font-size: 1px&quot;&gt;&lt;p style=&quot;text-align:center;margin-left:0;margin-right:0;margin-top:0px;margin-bottom:0px;text-indent:0;vertical-align:middle;direction:ltr;&quot;&gt;&lt;font style=&quot;font-size:18px;font-family:0;color:#000000;direction:ltr;letter-spacing:0px;line-height:120%;opacity:1&quot;&gt;MaxPooling&lt;/font&gt;&lt;/p&gt;&lt;/div&gt;" tags="Background" id="p8jLqkasfTIFGXJYe00s-3">
          <mxCell style="verticalAlign=middle;align=center;overflow=width;vsdxID=3;fillColor=#ed6b65;gradientColor=none;shape=stencil(nZBLDoAgDERP0z3SIyjew0SURgSD+Lu9kMZoXLhwN9O+tukAlrNpJg1SzDH4QW/URgNYgZTkjA4UkwJUgGXng+6DX1zLfmoymdXo17xh5zmRJ6Q42BWCfc2oJfdAr+Yv+AP9Cb7OJ3H/2JG1HNGz/84klThPVCc=);strokeColor=#000000;strokeWidth=2;spacingTop=-3;spacingBottom=-3;spacingLeft=-3;spacingRight=-3;points=[];labelBackgroundColor=none;rounded=0;html=1;whiteSpace=wrap;" parent="De4PDz4b7LUJne9OW4_j-1" vertex="1">
            <mxGeometry x="712.2295705521473" y="186.9941564326115" width="158.12046450482035" height="38.49879691259648" as="geometry" />
          </mxCell>
        </UserObject>
        <UserObject label="&lt;div style=&quot;font-size: 1px&quot;&gt;&lt;p style=&quot;text-align:center;margin-left:0;margin-right:0;margin-top:0px;margin-bottom:0px;text-indent:0;vertical-align:middle;direction:ltr;&quot;&gt;&lt;font style=&quot;font-size:18px;font-family:0;color:#000000;direction:ltr;letter-spacing:0px;line-height:120%;opacity:1&quot;&gt;AveragePooling&lt;/font&gt;&lt;/p&gt;&lt;/div&gt;" tags="Background" id="p8jLqkasfTIFGXJYe00s-4">
          <mxCell style="verticalAlign=middle;align=center;overflow=width;vsdxID=4;fillColor=#f9b9b9;gradientColor=none;shape=stencil(nZBLDoAgDERP0z3SIyjew0SURgSD+Lu9kMZoXLhwN9O+tukAlrNpJg1SzDH4QW/URgNYgZTkjA4UkwJUgGXng+6DX1zLfmoymdXo17xh5zmRJ6Q42BWCfc2oJfdAr+Yv+AP9Cb7OJ3H/2JG1HNGz/84klThPVCc=);strokeColor=#000000;strokeWidth=2;spacingTop=-3;spacingBottom=-3;spacingLeft=-3;spacingRight=-3;points=[];labelBackgroundColor=none;rounded=0;html=1;whiteSpace=wrap;" parent="De4PDz4b7LUJne9OW4_j-1" vertex="1">
            <mxGeometry x="698.4799649430324" y="340.98934408299743" width="181.49479404031553" height="38.49879691259648" as="geometry" />
          </mxCell>
        </UserObject>
        <UserObject label="&lt;div style=&quot;font-size: 1px&quot;&gt;&lt;p style=&quot;text-align:center;margin-left:0;margin-right:0;margin-top:0px;margin-bottom:0px;text-indent:0;vertical-align:middle;direction:ltr;&quot;&gt;&lt;font style=&quot;font-size:18px;font-family:0;color:#000000;direction:ltr;letter-spacing:0px;line-height:120%;opacity:1&quot;&gt;Conv&lt;/font&gt;&lt;/p&gt;&lt;/div&gt;" tags="Background" id="p8jLqkasfTIFGXJYe00s-5">
          <mxCell style="verticalAlign=middle;align=center;overflow=width;vsdxID=5;fillColor=#ffc000;gradientColor=none;shape=stencil(nZBLDoAgDERP0z3SIyjew0SURgSD+Lu9kMZoXLhwN9O+tukAlrNpJg1SzDH4QW/URgNYgZTkjA4UkwJUgGXng+6DX1zLfmoymdXo17xh5zmRJ6Q42BWCfc2oJfdAr+Yv+AP9Cb7OJ3H/2JG1HNGz/84klThPVCc=);strokeColor=#000000;strokeWidth=2;spacingTop=-3;spacingBottom=-3;spacingLeft=-3;spacingRight=-3;points=[];labelBackgroundColor=none;rounded=0;html=1;whiteSpace=wrap;" parent="De4PDz4b7LUJne9OW4_j-1" vertex="1">
            <mxGeometry x="1119.2178965819458" y="257.1169650948408" width="123.74645048203331" height="43.99862504296741" as="geometry" />
          </mxCell>
        </UserObject>
        <UserObject label="&lt;div style=&quot;font-size: 1px&quot;&gt;&lt;p style=&quot;text-align:center;margin-left:0;margin-right:0;margin-top:0px;margin-bottom:0px;text-indent:0;vertical-align:middle;direction:ltr;&quot;&gt;&lt;font style=&quot;font-size:18px;font-family:0;color:#000000;direction:ltr;letter-spacing:0px;line-height:120%;opacity:1&quot;&gt;SoftMax&lt;/font&gt;&lt;/p&gt;&lt;/div&gt;" tags="Background" id="p8jLqkasfTIFGXJYe00s-6">
          <mxCell style="verticalAlign=middle;align=center;overflow=width;vsdxID=6;fillColor=#b6b6b6;gradientColor=none;shape=stencil(nZBLDoAgDERP0z3SIyjew0SURgSD+Lu9kMZoXLhwN9O+tukAlrNpJg1SzDH4QW/URgNYgZTkjA4UkwJUgGXng+6DX1zLfmoymdXo17xh5zmRJ6Q42BWCfc2oJfdAr+Yv+AP9Cb7OJ3H/2JG1HNGz/84klThPVCc=);strokeColor=#000000;strokeWidth=2;spacingTop=-3;spacingBottom=-3;spacingLeft=-3;spacingRight=-3;points=[];labelBackgroundColor=none;rounded=0;html=1;whiteSpace=wrap;" parent="De4PDz4b7LUJne9OW4_j-1" vertex="1">
            <mxGeometry x="1291.0879666958808" y="257.1169650948408" width="134.74613496932517" height="43.99862504296741" as="geometry" />
          </mxCell>
        </UserObject>
        <UserObject label="" tags="Background" id="p8jLqkasfTIFGXJYe00s-7">
          <mxCell style="vsdxID=7;fillColor=none;gradientColor=none;points=[];labelBackgroundColor=none;rounded=0;strokeColor=none;html=1;whiteSpace=wrap;" parent="De4PDz4b7LUJne9OW4_j-1" vertex="1">
            <mxGeometry x="926.7234180543384" y="199.36876972594607" width="153.9955828220859" height="149.87031655260773" as="geometry" />
          </mxCell>
        </UserObject>
        <mxCell id="p8jLqkasfTIFGXJYe00s-8" style="vsdxID=8;fillColor=#ab9ac0;gradientColor=none;shape=stencil(nZBLDoAgDERP0z3SIyjew0SURgSD+Lu9kMZoXLhwN9O+tukAlrNpJg1SzDH4QW/URgNYgZTkjA4UkwJUgGXng+6DX1zLfmoymdXo17xh5zmRJ6Q42BWCfc2oJfdAr+Yv+AP9Cb7OJ3H/2JG1HNGz/84klThPVCc=);strokeColor=#000000;strokeWidth=2;spacingTop=-3;spacingBottom=-3;spacingLeft=-3;spacingRight=-3;points=[];labelBackgroundColor=none;rounded=0;html=1;whiteSpace=wrap;" parent="p8jLqkasfTIFGXJYe00s-7" vertex="1">
          <mxGeometry x="12.37464504820333" width="141.62093777388256" height="138.87066029186587" as="geometry" />
        </mxCell>
        <mxCell id="p8jLqkasfTIFGXJYe00s-9" value="&lt;div style=&quot;font-size: 1px&quot;&gt;&lt;p style=&quot;text-align:center;margin-left:0;margin-right:0;margin-top:0px;margin-bottom:0px;text-indent:0;vertical-align:middle;direction:ltr;&quot;&gt;&lt;font style=&quot;font-size:18px;font-family:0;color:#000000;direction:ltr;letter-spacing:0px;line-height:120%;opacity:1&quot;&gt;Concat&lt;/font&gt;&lt;/p&gt;&lt;/div&gt;" style="verticalAlign=middle;align=center;overflow=width;vsdxID=9;fillColor=#ab9ac0;gradientColor=none;shape=stencil(nZBLDoAgDERP0z3SIyjew0SURgSD+Lu9kMZoXLhwN9O+tukAlrNpJg1SzDH4QW/URgNYgZTkjA4UkwJUgGXng+6DX1zLfmoymdXo17xh5zmRJ6Q42BWCfc2oJfdAr+Yv+AP9Cb7OJ3H/2JG1HNGz/84klThPVCc=);strokeColor=#000000;strokeWidth=2;spacingTop=-3;spacingBottom=-3;spacingLeft=-3;spacingRight=-3;points=[];labelBackgroundColor=none;rounded=0;html=1;whiteSpace=wrap;" parent="p8jLqkasfTIFGXJYe00s-7" vertex="1">
          <mxGeometry y="9.62469922814912" width="141.62093777388256" height="138.87066029186587" as="geometry" />
        </mxCell>
        <UserObject label="&lt;div style=&quot;font-size: 1px&quot;&gt;&lt;p style=&quot;text-align:center;margin-left:0;margin-right:0;margin-top:0px;margin-bottom:0px;text-indent:0;vertical-align:middle;direction:ltr;&quot;&gt;&lt;font style=&quot;font-size:18px;font-family:0;color:#000000;direction:ltr;letter-spacing:0px;line-height:120%;opacity:1&quot;&gt;Combination&lt;br/&gt;&lt;/font&gt;&lt;font style=&quot;font-size:18px;font-family:0;color:#000000;direction:ltr;letter-spacing:0px;line-height:120%;opacity:1&quot;&gt;&lt;br/&gt;&lt;br/&gt;&lt;/font&gt;&lt;font style=&quot;font-size:18px;font-family:0;color:#000000;direction:ltr;letter-spacing:0px;line-height:120%;opacity:1&quot;&gt;&lt;br/&gt;&lt;/font&gt;&lt;/p&gt;&lt;/div&gt;" tags="Background" id="p8jLqkasfTIFGXJYe00s-10">
          <mxCell style="verticalAlign=middle;align=center;overflow=width;vsdxID=10;fillColor=#ffffff;gradientColor=none;shape=stencil(nZBLDoAgDERP0z3SIyjew0SURgSD+Lu9kMZoXLhwN9O+tukAlrNpJg1SzDH4QW/URgNYgZTkjA4UkwJUgGXng+6DX1zLfmoymdXo17xh5zmRJ6Q42BWCfc2oJfdAr+Yv+AP9Cb7OJ3H/2JG1HNGz/84klThPVCc=);strokeColor=#000000;strokeWidth=2;spacingTop=-3;spacingBottom=-3;spacingLeft=-3;spacingRight=-3;points=[];labelBackgroundColor=none;rounded=0;html=1;whiteSpace=wrap;" parent="De4PDz4b7LUJne9OW4_j-1" vertex="1">
            <mxGeometry x="413.86312883435585" y="236.49260960594984" width="255.74266432953553" height="118.24630480297492" as="geometry" />
          </mxCell>
        </UserObject>
        <UserObject label="" tags="Background" id="p8jLqkasfTIFGXJYe00s-11">
          <mxCell style="vsdxID=11;fillColor=none;gradientColor=none;points=[];labelBackgroundColor=none;rounded=0;strokeColor=none;html=1;whiteSpace=wrap;" parent="De4PDz4b7LUJne9OW4_j-1" vertex="1">
            <mxGeometry x="34.37401402278703" width="137.49605609114812" height="137.49570325927314" as="geometry" />
          </mxCell>
        </UserObject>
        <mxCell id="p8jLqkasfTIFGXJYe00s-12" value="&lt;div style=&quot;font-size: 1px&quot;&gt;&lt;p style=&quot;text-align:center;margin-left:0;margin-right:0;margin-top:0px;margin-bottom:0px;text-indent:0;vertical-align:middle;direction:ltr;&quot;&gt;&lt;font style=&quot;font-size:18px;font-family:0;color:#000000;direction:ltr;letter-spacing:0px;line-height:120%;opacity:1&quot;&gt;-1&lt;/font&gt;&lt;/p&gt;&lt;/div&gt;" style="verticalAlign=middle;align=center;overflow=width;vsdxID=12;fillColor=#ffffff;gradientColor=none;shape=stencil(nZBLDoAgDERP0z3SIyjew0SURgSD+Lu9kMZoXLhwN9O+tukAlrNpJg1SzDH4QW/URgNYgZTkjA4UkwJUgGXng+6DX1zLfmoymdXo17xh5zmRJ6Q42BWCfc2oJfdAr+Yv+AP9Cb7OJ3H/2JG1HNGz/84klThPVCc=);strokeColor=#000000;strokeWidth=2;spacingTop=-3;spacingBottom=-3;spacingLeft=-3;spacingRight=-3;points=[];labelBackgroundColor=none;rounded=0;html=1;whiteSpace=wrap;" parent="p8jLqkasfTIFGXJYe00s-11" vertex="1">
          <mxGeometry width="46.748659070990364" height="46.74853910815286" as="geometry" />
        </mxCell>
        <mxCell id="p8jLqkasfTIFGXJYe00s-13" value="&lt;div style=&quot;font-size: 1px&quot;&gt;&lt;p style=&quot;text-align:center;margin-left:0;margin-right:0;margin-top:0px;margin-bottom:0px;text-indent:0;vertical-align:middle;direction:ltr;&quot;&gt;&lt;font style=&quot;font-size:18px;font-family:0;color:#000000;direction:ltr;letter-spacing:0px;line-height:120%;opacity:1&quot;&gt;0&lt;/font&gt;&lt;/p&gt;&lt;/div&gt;" style="verticalAlign=middle;align=center;overflow=width;vsdxID=13;fillColor=#ffffff;gradientColor=none;shape=stencil(nZBLDoAgDERP0z3SIyjew0SURgSD+Lu9kMZoXLhwN9O+tukAlrNpJg1SzDH4QW/URgNYgZTkjA4UkwJUgGXng+6DX1zLfmoymdXo17xh5zmRJ6Q42BWCfc2oJfdAr+Yv+AP9Cb7OJ3H/2JG1HNGz/84klThPVCc=);strokeColor=#000000;strokeWidth=2;spacingTop=-3;spacingBottom=-3;spacingLeft=-3;spacingRight=-3;points=[];labelBackgroundColor=none;rounded=0;html=1;whiteSpace=wrap;" parent="p8jLqkasfTIFGXJYe00s-11" vertex="1">
          <mxGeometry x="43.9987379491674" width="46.748659070990364" height="46.74853910815286" as="geometry" />
        </mxCell>
        <mxCell id="p8jLqkasfTIFGXJYe00s-14" value="&lt;div style=&quot;font-size: 1px&quot;&gt;&lt;p style=&quot;text-align:center;margin-left:0;margin-right:0;margin-top:0px;margin-bottom:0px;text-indent:0;vertical-align:middle;direction:ltr;&quot;&gt;&lt;font style=&quot;font-size:18px;font-family:0;color:#000000;direction:ltr;letter-spacing:0px;line-height:120%;opacity:1&quot;&gt;1&lt;/font&gt;&lt;/p&gt;&lt;/div&gt;" style="verticalAlign=middle;align=center;overflow=width;vsdxID=14;fillColor=#ffffff;gradientColor=none;shape=stencil(nZBLDoAgDERP0z3SIyjew0SURgSD+Lu9kMZoXLhwN9O+tukAlrNpJg1SzDH4QW/URgNYgZTkjA4UkwJUgGXng+6DX1zLfmoymdXo17xh5zmRJ6Q42BWCfc2oJfdAr+Yv+AP9Cb7OJ3H/2JG1HNGz/84klThPVCc=);strokeColor=#000000;strokeWidth=2;spacingTop=-3;spacingBottom=-3;spacingLeft=-3;spacingRight=-3;points=[];labelBackgroundColor=none;rounded=0;html=1;whiteSpace=wrap;" parent="p8jLqkasfTIFGXJYe00s-11" vertex="1">
          <mxGeometry x="90.74739702015776" width="46.748659070990364" height="46.74853910815286" as="geometry" />
        </mxCell>
        <mxCell id="p8jLqkasfTIFGXJYe00s-15" value="&lt;div style=&quot;font-size: 1px&quot;&gt;&lt;p style=&quot;text-align:center;margin-left:0;margin-right:0;margin-top:0px;margin-bottom:0px;text-indent:0;vertical-align:middle;direction:ltr;&quot;&gt;&lt;font style=&quot;font-size:18px;font-family:0;color:#000000;direction:ltr;letter-spacing:0px;line-height:120%;opacity:1&quot;&gt;-2&lt;/font&gt;&lt;/p&gt;&lt;/div&gt;" style="verticalAlign=middle;align=center;overflow=width;vsdxID=15;fillColor=#ffffff;gradientColor=none;shape=stencil(nZBLDoAgDERP0z3SIyjew0SURgSD+Lu9kMZoXLhwN9O+tukAlrNpJg1SzDH4QW/URgNYgZTkjA4UkwJUgGXng+6DX1zLfmoymdXo17xh5zmRJ6Q42BWCfc2oJfdAr+Yv+AP9Cb7OJ3H/2JG1HNGz/84klThPVCc=);strokeColor=#000000;strokeWidth=2;spacingTop=-3;spacingBottom=-3;spacingLeft=-3;spacingRight=-3;points=[];labelBackgroundColor=none;rounded=0;html=1;whiteSpace=wrap;" parent="p8jLqkasfTIFGXJYe00s-11" vertex="1">
          <mxGeometry y="46.74853910815286" width="46.748659070990364" height="46.74853910815286" as="geometry" />
        </mxCell>
        <mxCell id="p8jLqkasfTIFGXJYe00s-16" value="&lt;div style=&quot;font-size: 1px&quot;&gt;&lt;p style=&quot;text-align:center;margin-left:0;margin-right:0;margin-top:0px;margin-bottom:0px;text-indent:0;vertical-align:middle;direction:ltr;&quot;&gt;&lt;font style=&quot;font-size:18px;font-family:0;color:#000000;direction:ltr;letter-spacing:0px;line-height:120%;opacity:1&quot;&gt;0&lt;/font&gt;&lt;/p&gt;&lt;/div&gt;" style="verticalAlign=middle;align=center;overflow=width;vsdxID=16;fillColor=#ffffff;gradientColor=none;shape=stencil(nZBLDoAgDERP0z3SIyjew0SURgSD+Lu9kMZoXLhwN9O+tukAlrNpJg1SzDH4QW/URgNYgZTkjA4UkwJUgGXng+6DX1zLfmoymdXo17xh5zmRJ6Q42BWCfc2oJfdAr+Yv+AP9Cb7OJ3H/2JG1HNGz/84klThPVCc=);strokeColor=#000000;strokeWidth=2;spacingTop=-3;spacingBottom=-3;spacingLeft=-3;spacingRight=-3;points=[];labelBackgroundColor=none;rounded=0;html=1;whiteSpace=wrap;" parent="p8jLqkasfTIFGXJYe00s-11" vertex="1">
          <mxGeometry x="43.9987379491674" y="46.74853910815286" width="46.748659070990364" height="46.74853910815286" as="geometry" />
        </mxCell>
        <mxCell id="p8jLqkasfTIFGXJYe00s-17" value="&lt;div style=&quot;font-size: 1px&quot;&gt;&lt;p style=&quot;text-align:center;margin-left:0;margin-right:0;margin-top:0px;margin-bottom:0px;text-indent:0;vertical-align:middle;direction:ltr;&quot;&gt;&lt;font style=&quot;font-size:18px;font-family:0;color:#000000;direction:ltr;letter-spacing:0px;line-height:120%;opacity:1&quot;&gt;2&lt;/font&gt;&lt;/p&gt;&lt;/div&gt;" style="verticalAlign=middle;align=center;overflow=width;vsdxID=17;fillColor=#ffffff;gradientColor=none;shape=stencil(nZBLDoAgDERP0z3SIyjew0SURgSD+Lu9kMZoXLhwN9O+tukAlrNpJg1SzDH4QW/URgNYgZTkjA4UkwJUgGXng+6DX1zLfmoymdXo17xh5zmRJ6Q42BWCfc2oJfdAr+Yv+AP9Cb7OJ3H/2JG1HNGz/84klThPVCc=);strokeColor=#000000;strokeWidth=2;spacingTop=-3;spacingBottom=-3;spacingLeft=-3;spacingRight=-3;points=[];labelBackgroundColor=none;rounded=0;html=1;whiteSpace=wrap;" parent="p8jLqkasfTIFGXJYe00s-11" vertex="1">
          <mxGeometry x="90.74739702015776" y="46.74853910815286" width="46.748659070990364" height="46.74853910815286" as="geometry" />
        </mxCell>
        <mxCell id="p8jLqkasfTIFGXJYe00s-18" value="&lt;div style=&quot;font-size: 1px&quot;&gt;&lt;p style=&quot;text-align:center;margin-left:0;margin-right:0;margin-top:0px;margin-bottom:0px;text-indent:0;vertical-align:middle;direction:ltr;&quot;&gt;&lt;font style=&quot;font-size:18px;font-family:0;color:#000000;direction:ltr;letter-spacing:0px;line-height:120%;opacity:1&quot;&gt;-1&lt;/font&gt;&lt;/p&gt;&lt;/div&gt;" style="verticalAlign=middle;align=center;overflow=width;vsdxID=18;fillColor=#ffffff;gradientColor=none;shape=stencil(nZBLDoAgDERP0z3SIyjew0SURgSD+Lu9kMZoXLhwN9O+tukAlrNpJg1SzDH4QW/URgNYgZTkjA4UkwJUgGXng+6DX1zLfmoymdXo17xh5zmRJ6Q42BWCfc2oJfdAr+Yv+AP9Cb7OJ3H/2JG1HNGz/84klThPVCc=);strokeColor=#000000;strokeWidth=2;spacingTop=-3;spacingBottom=-3;spacingLeft=-3;spacingRight=-3;points=[];labelBackgroundColor=none;rounded=0;html=1;whiteSpace=wrap;" parent="p8jLqkasfTIFGXJYe00s-11" vertex="1">
          <mxGeometry y="90.74716415112026" width="46.748659070990364" height="46.74853910815286" as="geometry" />
        </mxCell>
        <mxCell id="p8jLqkasfTIFGXJYe00s-19" value="&lt;div style=&quot;font-size: 1px&quot;&gt;&lt;p style=&quot;text-align:center;margin-left:0;margin-right:0;margin-top:0px;margin-bottom:0px;text-indent:0;vertical-align:middle;direction:ltr;&quot;&gt;&lt;font style=&quot;font-size:18px;font-family:0;color:#000000;direction:ltr;letter-spacing:0px;line-height:120%;opacity:1&quot;&gt;0&lt;/font&gt;&lt;/p&gt;&lt;/div&gt;" style="verticalAlign=middle;align=center;overflow=width;vsdxID=19;fillColor=#ffffff;gradientColor=none;shape=stencil(nZBLDoAgDERP0z3SIyjew0SURgSD+Lu9kMZoXLhwN9O+tukAlrNpJg1SzDH4QW/URgNYgZTkjA4UkwJUgGXng+6DX1zLfmoymdXo17xh5zmRJ6Q42BWCfc2oJfdAr+Yv+AP9Cb7OJ3H/2JG1HNGz/84klThPVCc=);strokeColor=#000000;strokeWidth=2;spacingTop=-3;spacingBottom=-3;spacingLeft=-3;spacingRight=-3;points=[];labelBackgroundColor=none;rounded=0;html=1;whiteSpace=wrap;" parent="p8jLqkasfTIFGXJYe00s-11" vertex="1">
          <mxGeometry x="43.9987379491674" y="90.74716415112026" width="46.748659070990364" height="46.74853910815286" as="geometry" />
        </mxCell>
        <mxCell id="p8jLqkasfTIFGXJYe00s-20" value="&lt;div style=&quot;font-size: 1px&quot;&gt;&lt;p style=&quot;text-align:center;margin-left:0;margin-right:0;margin-top:0px;margin-bottom:0px;text-indent:0;vertical-align:middle;direction:ltr;&quot;&gt;&lt;font style=&quot;font-size:18px;font-family:0;color:#000000;direction:ltr;letter-spacing:0px;line-height:120%;opacity:1&quot;&gt;1&lt;/font&gt;&lt;/p&gt;&lt;/div&gt;" style="verticalAlign=middle;align=center;overflow=width;vsdxID=20;fillColor=#ffffff;gradientColor=none;shape=stencil(nZBLDoAgDERP0z3SIyjew0SURgSD+Lu9kMZoXLhwN9O+tukAlrNpJg1SzDH4QW/URgNYgZTkjA4UkwJUgGXng+6DX1zLfmoymdXo17xh5zmRJ6Q42BWCfc2oJfdAr+Yv+AP9Cb7OJ3H/2JG1HNGz/84klThPVCc=);strokeColor=#000000;strokeWidth=2;spacingTop=-3;spacingBottom=-3;spacingLeft=-3;spacingRight=-3;points=[];labelBackgroundColor=none;rounded=0;html=1;whiteSpace=wrap;" parent="p8jLqkasfTIFGXJYe00s-11" vertex="1">
          <mxGeometry x="90.74739702015776" y="90.74716415112026" width="46.748659070990364" height="46.74853910815286" as="geometry" />
        </mxCell>
        <UserObject label="" tags="Background" id="p8jLqkasfTIFGXJYe00s-21">
          <mxCell style="vsdxID=21;fillColor=none;gradientColor=none;shape=stencil(nZBLDoAgDERP0z3SIyDew0QUooJB/N1eSGM0LFywm2lf23QAxarbRQFna/BuVIfpggasgXNjtfImRAUoAUXvvBq822xHfmkTmdTs9rThpDmWJji7yFWMfEPoZOwHfZpF8A9aCGbno3h/jCYPIJYoPJQ3);strokeColor=none;strokeWidth=0;spacingTop=-3;spacingBottom=-3;spacingLeft=-3;spacingRight=-3;points=[];labelBackgroundColor=none;rounded=0;html=1;whiteSpace=wrap;" parent="De4PDz4b7LUJne9OW4_j-1" vertex="1">
            <mxGeometry y="41.24871097778195" width="26.124250657318143" height="26.1241836192619" as="geometry" />
          </mxCell>
        </UserObject>
        <UserObject label="" tags="Background" id="p8jLqkasfTIFGXJYe00s-22">
          <mxCell style="vsdxID=22;fillColor=none;gradientColor=none;points=[];labelBackgroundColor=none;rounded=0;strokeColor=none;html=1;whiteSpace=wrap;" parent="De4PDz4b7LUJne9OW4_j-1" vertex="1">
            <mxGeometry x="281.86691498685366" width="137.49605609114812" height="137.49570325927314" as="geometry" />
          </mxCell>
        </UserObject>
        <mxCell id="p8jLqkasfTIFGXJYe00s-23" value="&lt;div style=&quot;font-size: 1px&quot;&gt;&lt;p style=&quot;text-align:center;margin-left:0;margin-right:0;margin-top:0px;margin-bottom:0px;text-indent:0;vertical-align:middle;direction:ltr;&quot;&gt;&lt;font style=&quot;font-size:18px;font-family:0;color:#000000;direction:ltr;letter-spacing:0px;line-height:120%;opacity:1&quot;&gt;1&lt;/font&gt;&lt;/p&gt;&lt;/div&gt;" style="verticalAlign=middle;align=center;overflow=width;vsdxID=23;rotation=360;fillColor=#ffffff;gradientColor=none;shape=stencil(nZBLDoAgDERP0z3SIyjew0SURgSD+Lu9kMZoXLhwN9O+tukAlrNpJg1SzDH4QW/URgNYgZTkjA4UkwJUgGXng+6DX1zLfmoymdXo17xh5zmRJ6Q42BWCfc2oJfdAr+Yv+AP9Cb7OJ3H/2JG1HNGz/84klThPVCc=);strokeColor=#000000;strokeWidth=2;spacingTop=-3;spacingBottom=-3;spacingLeft=-3;spacingRight=-3;points=[];labelBackgroundColor=none;rounded=0;html=1;whiteSpace=wrap;" parent="p8jLqkasfTIFGXJYe00s-22" vertex="1">
          <mxGeometry width="46.748659070990364" height="46.74853910815286" as="geometry" />
        </mxCell>
        <mxCell id="p8jLqkasfTIFGXJYe00s-24" value="&lt;div style=&quot;font-size: 1px&quot;&gt;&lt;p style=&quot;text-align:center;margin-left:0;margin-right:0;margin-top:0px;margin-bottom:0px;text-indent:0;vertical-align:middle;direction:ltr;&quot;&gt;&lt;font style=&quot;font-size:18px;font-family:0;color:#000000;direction:ltr;letter-spacing:0px;line-height:120%;opacity:1&quot;&gt;2&lt;/font&gt;&lt;/p&gt;&lt;/div&gt;" style="verticalAlign=middle;align=center;overflow=width;vsdxID=24;rotation=360;fillColor=#ffffff;gradientColor=none;shape=stencil(nZBLDoAgDERP0z3SIyjew0SURgSD+Lu9kMZoXLhwN9O+tukAlrNpJg1SzDH4QW/URgNYgZTkjA4UkwJUgGXng+6DX1zLfmoymdXo17xh5zmRJ6Q42BWCfc2oJfdAr+Yv+AP9Cb7OJ3H/2JG1HNGz/84klThPVCc=);strokeColor=#000000;strokeWidth=2;spacingTop=-3;spacingBottom=-3;spacingLeft=-3;spacingRight=-3;points=[];labelBackgroundColor=none;rounded=0;html=1;whiteSpace=wrap;" parent="p8jLqkasfTIFGXJYe00s-22" vertex="1">
          <mxGeometry x="43.9987379491674" width="46.748659070990364" height="46.74853910815286" as="geometry" />
        </mxCell>
        <mxCell id="p8jLqkasfTIFGXJYe00s-25" value="&lt;div style=&quot;font-size: 1px&quot;&gt;&lt;p style=&quot;text-align:center;margin-left:0;margin-right:0;margin-top:0px;margin-bottom:0px;text-indent:0;vertical-align:middle;direction:ltr;&quot;&gt;&lt;font style=&quot;font-size:18px;font-family:0;color:#000000;direction:ltr;letter-spacing:0px;line-height:120%;opacity:1&quot;&gt;1&lt;/font&gt;&lt;/p&gt;&lt;/div&gt;" style="verticalAlign=middle;align=center;overflow=width;vsdxID=25;rotation=360;fillColor=#ffffff;gradientColor=none;shape=stencil(nZBLDoAgDERP0z3SIyjew0SURgSD+Lu9kMZoXLhwN9O+tukAlrNpJg1SzDH4QW/URgNYgZTkjA4UkwJUgGXng+6DX1zLfmoymdXo17xh5zmRJ6Q42BWCfc2oJfdAr+Yv+AP9Cb7OJ3H/2JG1HNGz/84klThPVCc=);strokeColor=#000000;strokeWidth=2;spacingTop=-3;spacingBottom=-3;spacingLeft=-3;spacingRight=-3;points=[];labelBackgroundColor=none;rounded=0;html=1;whiteSpace=wrap;" parent="p8jLqkasfTIFGXJYe00s-22" vertex="1">
          <mxGeometry x="90.74739702015776" width="46.748659070990364" height="46.74853910815286" as="geometry" />
        </mxCell>
        <mxCell id="p8jLqkasfTIFGXJYe00s-26" value="&lt;div style=&quot;font-size: 1px&quot;&gt;&lt;p style=&quot;text-align:center;margin-left:0;margin-right:0;margin-top:0px;margin-bottom:0px;text-indent:0;vertical-align:middle;direction:ltr;&quot;&gt;&lt;font style=&quot;font-size:18px;font-family:0;color:#000000;direction:ltr;letter-spacing:0px;line-height:120%;opacity:1&quot;&gt;0&lt;/font&gt;&lt;/p&gt;&lt;/div&gt;" style="verticalAlign=middle;align=center;overflow=width;vsdxID=26;rotation=360;fillColor=#ffffff;gradientColor=none;shape=stencil(nZBLDoAgDERP0z3SIyjew0SURgSD+Lu9kMZoXLhwN9O+tukAlrNpJg1SzDH4QW/URgNYgZTkjA4UkwJUgGXng+6DX1zLfmoymdXo17xh5zmRJ6Q42BWCfc2oJfdAr+Yv+AP9Cb7OJ3H/2JG1HNGz/84klThPVCc=);strokeColor=#000000;strokeWidth=2;spacingTop=-3;spacingBottom=-3;spacingLeft=-3;spacingRight=-3;points=[];labelBackgroundColor=none;rounded=0;html=1;whiteSpace=wrap;" parent="p8jLqkasfTIFGXJYe00s-22" vertex="1">
          <mxGeometry y="43.9986250429674" width="46.748659070990364" height="46.74853910815286" as="geometry" />
        </mxCell>
        <mxCell id="p8jLqkasfTIFGXJYe00s-27" value="&lt;div style=&quot;font-size: 1px&quot;&gt;&lt;p style=&quot;text-align:center;margin-left:0;margin-right:0;margin-top:0px;margin-bottom:0px;text-indent:0;vertical-align:middle;direction:ltr;&quot;&gt;&lt;font style=&quot;font-size:18px;font-family:0;color:#000000;direction:ltr;letter-spacing:0px;line-height:120%;opacity:1&quot;&gt;0&lt;/font&gt;&lt;/p&gt;&lt;/div&gt;" style="verticalAlign=middle;align=center;overflow=width;vsdxID=27;rotation=360;fillColor=#ffffff;gradientColor=none;shape=stencil(nZBLDoAgDERP0z3SIyjew0SURgSD+Lu9kMZoXLhwN9O+tukAlrNpJg1SzDH4QW/URgNYgZTkjA4UkwJUgGXng+6DX1zLfmoymdXo17xh5zmRJ6Q42BWCfc2oJfdAr+Yv+AP9Cb7OJ3H/2JG1HNGz/84klThPVCc=);strokeColor=#000000;strokeWidth=2;spacingTop=-3;spacingBottom=-3;spacingLeft=-3;spacingRight=-3;points=[];labelBackgroundColor=none;rounded=0;html=1;whiteSpace=wrap;" parent="p8jLqkasfTIFGXJYe00s-22" vertex="1">
          <mxGeometry x="43.9987379491674" y="43.9986250429674" width="46.748659070990364" height="46.74853910815286" as="geometry" />
        </mxCell>
        <mxCell id="p8jLqkasfTIFGXJYe00s-28" value="&lt;div style=&quot;font-size: 1px&quot;&gt;&lt;p style=&quot;text-align:center;margin-left:0;margin-right:0;margin-top:0px;margin-bottom:0px;text-indent:0;vertical-align:middle;direction:ltr;&quot;&gt;&lt;font style=&quot;font-size:18px;font-family:0;color:#000000;direction:ltr;letter-spacing:0px;line-height:120%;opacity:1&quot;&gt;0&lt;/font&gt;&lt;/p&gt;&lt;/div&gt;" style="verticalAlign=middle;align=center;overflow=width;vsdxID=28;rotation=360;fillColor=#ffffff;gradientColor=none;shape=stencil(nZBLDoAgDERP0z3SIyjew0SURgSD+Lu9kMZoXLhwN9O+tukAlrNpJg1SzDH4QW/URgNYgZTkjA4UkwJUgGXng+6DX1zLfmoymdXo17xh5zmRJ6Q42BWCfc2oJfdAr+Yv+AP9Cb7OJ3H/2JG1HNGz/84klThPVCc=);strokeColor=#000000;strokeWidth=2;spacingTop=-3;spacingBottom=-3;spacingLeft=-3;spacingRight=-3;points=[];labelBackgroundColor=none;rounded=0;html=1;whiteSpace=wrap;" parent="p8jLqkasfTIFGXJYe00s-22" vertex="1">
          <mxGeometry x="90.74739702015776" y="43.9986250429674" width="46.748659070990364" height="46.74853910815286" as="geometry" />
        </mxCell>
        <mxCell id="p8jLqkasfTIFGXJYe00s-29" value="&lt;div style=&quot;font-size: 1px&quot;&gt;&lt;p style=&quot;text-align:center;margin-left:0;margin-right:0;margin-top:0px;margin-bottom:0px;text-indent:0;vertical-align:middle;direction:ltr;&quot;&gt;&lt;font style=&quot;font-size:18px;font-family:0;color:#000000;direction:ltr;letter-spacing:0px;line-height:120%;opacity:1&quot;&gt;-1&lt;/font&gt;&lt;/p&gt;&lt;/div&gt;" style="verticalAlign=middle;align=center;overflow=width;vsdxID=29;rotation=360;fillColor=#ffffff;gradientColor=none;shape=stencil(nZBLDoAgDERP0z3SIyjew0SURgSD+Lu9kMZoXLhwN9O+tukAlrNpJg1SzDH4QW/URgNYgZTkjA4UkwJUgGXng+6DX1zLfmoymdXo17xh5zmRJ6Q42BWCfc2oJfdAr+Yv+AP9Cb7OJ3H/2JG1HNGz/84klThPVCc=);strokeColor=#000000;strokeWidth=2;spacingTop=-3;spacingBottom=-3;spacingLeft=-3;spacingRight=-3;points=[];labelBackgroundColor=none;rounded=0;html=1;whiteSpace=wrap;" parent="p8jLqkasfTIFGXJYe00s-22" vertex="1">
          <mxGeometry y="90.74716415112026" width="46.748659070990364" height="46.74853910815286" as="geometry" />
        </mxCell>
        <mxCell id="p8jLqkasfTIFGXJYe00s-30" value="&lt;div style=&quot;font-size: 1px&quot;&gt;&lt;p style=&quot;text-align:center;margin-left:0;margin-right:0;margin-top:0px;margin-bottom:0px;text-indent:0;vertical-align:middle;direction:ltr;&quot;&gt;&lt;font style=&quot;font-size:18px;font-family:0;color:#000000;direction:ltr;letter-spacing:0px;line-height:120%;opacity:1&quot;&gt;-2&lt;/font&gt;&lt;/p&gt;&lt;/div&gt;" style="verticalAlign=middle;align=center;overflow=width;vsdxID=30;rotation=360;fillColor=#ffffff;gradientColor=none;shape=stencil(nZBLDoAgDERP0z3SIyjew0SURgSD+Lu9kMZoXLhwN9O+tukAlrNpJg1SzDH4QW/URgNYgZTkjA4UkwJUgGXng+6DX1zLfmoymdXo17xh5zmRJ6Q42BWCfc2oJfdAr+Yv+AP9Cb7OJ3H/2JG1HNGz/84klThPVCc=);strokeColor=#000000;strokeWidth=2;spacingTop=-3;spacingBottom=-3;spacingLeft=-3;spacingRight=-3;points=[];labelBackgroundColor=none;rounded=0;html=1;whiteSpace=wrap;" parent="p8jLqkasfTIFGXJYe00s-22" vertex="1">
          <mxGeometry x="43.9987379491674" y="90.74716415112026" width="46.748659070990364" height="46.74853910815286" as="geometry" />
        </mxCell>
        <mxCell id="p8jLqkasfTIFGXJYe00s-31" value="&lt;div style=&quot;font-size: 1px&quot;&gt;&lt;p style=&quot;text-align:center;margin-left:0;margin-right:0;margin-top:0px;margin-bottom:0px;text-indent:0;vertical-align:middle;direction:ltr;&quot;&gt;&lt;font style=&quot;font-size:18px;font-family:0;color:#000000;direction:ltr;letter-spacing:0px;line-height:120%;opacity:1&quot;&gt;-1&lt;/font&gt;&lt;/p&gt;&lt;/div&gt;" style="verticalAlign=middle;align=center;overflow=width;vsdxID=31;rotation=360;fillColor=#ffffff;gradientColor=none;shape=stencil(nZBLDoAgDERP0z3SIyjew0SURgSD+Lu9kMZoXLhwN9O+tukAlrNpJg1SzDH4QW/URgNYgZTkjA4UkwJUgGXng+6DX1zLfmoymdXo17xh5zmRJ6Q42BWCfc2oJfdAr+Yv+AP9Cb7OJ3H/2JG1HNGz/84klThPVCc=);strokeColor=#000000;strokeWidth=2;spacingTop=-3;spacingBottom=-3;spacingLeft=-3;spacingRight=-3;points=[];labelBackgroundColor=none;rounded=0;html=1;whiteSpace=wrap;" parent="p8jLqkasfTIFGXJYe00s-22" vertex="1">
          <mxGeometry x="90.74739702015776" y="90.74716415112026" width="46.748659070990364" height="46.74853910815286" as="geometry" />
        </mxCell>
        <UserObject label="" tags="Background" id="p8jLqkasfTIFGXJYe00s-32">
          <mxCell style="vsdxID=32;fillColor=none;gradientColor=none;shape=stencil(nZBLDoAgDERP0z3SIyDew0QUooJB/N1eSGM0LFywm2lf23QAxarbRQFna/BuVIfpggasgXNjtfImRAUoAUXvvBq822xHfmkTmdTs9rThpDmWJji7yFWMfEPoZOwHfZpF8A9aCGbno3h/jCYPIJYoPJQ3);strokeColor=none;strokeWidth=0;spacingTop=-3;spacingBottom=-3;spacingLeft=-3;spacingRight=-3;points=[];labelBackgroundColor=none;rounded=0;html=1;whiteSpace=wrap;" parent="De4PDz4b7LUJne9OW4_j-1" vertex="1">
            <mxGeometry x="240.61809815950923" y="52.2483672385238" width="31.624092900964065" height="35.74888284741102" as="geometry" />
          </mxCell>
        </UserObject>
        <UserObject label="" tags="Background" id="p8jLqkasfTIFGXJYe00s-33">
          <mxCell style="vsdxID=33;fillColor=#FFFFFF;gradientColor=none;shape=stencil(jZLdDoIwDIWfZpeSbY3oPeJ7EBmyiIyMofD2slQC+4ly13N22m9pSiDr66IThNPeaPUQb1mamsCFcC7bWmhp5opATiCrlBZ3rYa2RN0VNmmrp3rZCSP2UdvB6YTqiPKKydugMcrc7FceWJqkJ/RGjh6jS4hHQuCHYA92jS9GBOxhWQT7E9rIdudW3P1tOJPvREefIQFwGlYnSggb/hDCLwWEuVgPopJNg/e0ffcPaLbw+CD/AA==);strokeColor=#000000;strokeWidth=2;spacingTop=-3;spacingBottom=-3;spacingLeft=-3;spacingRight=-3;points=[];labelBackgroundColor=none;rounded=0;html=1;whiteSpace=wrap;" parent="De4PDz4b7LUJne9OW4_j-1" vertex="1">
            <mxGeometry x="1468.4578790534617" y="261.241836192619" width="37.12393514460999" height="37.12383988000375" as="geometry" />
          </mxCell>
        </UserObject>
        <UserObject label="" tags="Background" id="p8jLqkasfTIFGXJYe00s-34">
          <mxCell style="vsdxID=34;fillColor=none;gradientColor=none;shape=stencil(jZFRDsIgEERPs58a2I31ALXeo7EoRIWG0lpvL2RtGgkx/ZuZvGWSAagedNsrQDEE7+7qZbqggU6AaKxW3oSogBqg+uq8unk32o593yYyqaeb0gsz34l0geLN7sD2zORl9IzKX/Zrd7LaV0fOZuRMigXCAkQ5RFtqV3wJCsVZrSzU/i19GLtxlSjWMaPJl44R/xI1Hw==);strokeColor=none;strokeWidth=0;spacingTop=-3;spacingBottom=-3;spacingLeft=-3;spacingRight=-3;points=[];labelBackgroundColor=none;rounded=0;html=1;whiteSpace=wrap;" parent="De4PDz4b7LUJne9OW4_j-1" vertex="1">
            <mxGeometry x="1468.4578790534617" y="261.241836192619" width="37.12393514460999" height="37.12383988000375" as="geometry" />
          </mxCell>
        </UserObject>
        <UserObject label="" tags="Background" id="p8jLqkasfTIFGXJYe00s-35">
          <mxCell style="vsdxID=35;fillColor=none;gradientColor=none;image;aspect=fixed;image=data:image/png,iVBORw0KGgoAAAANSUhEUgAAAioAAACgCAYAAAAihEckAAAABHNCSVQICAgIfAhkiAAAABl0RVh0U29mdHdhcmUAZ25vbWUtc2NyZWVuc2hvdO8Dvz4AAAA9aVRYdENyZWF0aW9uIFRpbWUAAAAAADIwMjPlubQwNuaciDE05pelIOaYn+acn+S4iSAwOeaXtjI45YiGNTbnp5K2uSqRAAAgAElEQVR4nO3deVhV1f4/8Pc5DKIgippoihMkJuKc8ywY4dCttCzrplZqak8alSXX+1Wv93G8ZplZqZhamak5lOWAEznigENqoqDgLEYKKODhnPX7w4f9OxvOBGfa+/B+PQ/Pc/bZa6/9ObDY+3P2XmttjRBCgIiIiEiBtO4OgIiIiMgcJipERESkWExUiIiISLGYqBAREZFiMVEhIiIixWKiQkRERIrFRIWIiIgUi4kKERERKRYTFSIiIlIsJipERESkWExUiIiISLGYqBAREZFiMVEhIiIixWKiQkRERIrFRIWIiIgUi4kKERERKRYTFSIiIlIsb3cHQERkTdeuXfHgwQOcOHHC3aEQURkIIeyuQyMcUQsRkZNkZmaiYcOG7g6DiMrBESkGb/0QkaLxKgpRxcZEhYgU7eTJk+4OgYjciH1UiEjRSl5ROXr0KNq1a+emaIjI1dhHhYgULTQ0FOnp6QAALy8v5OXlwc/Pz81REZGr8NYPESlWTk4OLl26JC2Hh4czSSGqYJioEJFinTp1SjZqoFWrVm6MhojcgYkKESlWyY60TFSIKh4mKkSkWCU70jJRIap4mKgQkWKVTFRat27tpkiIyF046oeIFEmv1yMgIAAFBQUAgNq1a+PWrVtujoqIXI1XVIhIkc6fPy8lKQBv+xBVVExUiEiR2D+FiAAmKkSkUBzxQ0QAExUiUiheUSEigJ1piUih6tSpI3We9fX1RV5eHnx8fNwcFRG5Gq+oEJHi3Lx5UzbCJyIigkkKUQXFRIWIFIe3fYioGBMVIlIcdqQlomJMVIhIcXhFhYiKMVEhIsXhFRUiKsZRP0SkKPn5+ahatSr0ej0AICQkBJmZmW6OiojchVdUiEhRTp8+LSUpAK+mEFV0TFSISFF424eIjDFRISJFYUdaIjLGRIWIFIWJChEZY2daIlIMIQQCAwORl5cHAPD390dOTg60Wn6nIqqo+N9PRIqRlpYmJSkAEBkZySSFqILjEYCIFIMdaYmoJG93B0BEVKyi9k8pKCjAjh07cOzYMVy/fh1+fn4ICQlBVFQUWrduDY1G4+4QyYOorb0xUSEixahoiUp+fj7mz5+P2bNnIzc312SZbt26YcmSJWjWrJmLoyNPo9b2xs60RKQYDRo0wJUrVwAAGo0G9+7dQ9WqVd0clXPcuHEDzzzzTKnbXaZUqlQJU6ZMQXx8vAsiI0+k5vbGRIWIFCE7Oxs1a9aUlsPCwnDhwgU3RuQ89+/fR9u2bZGamgoAqFWrFsLCwpCXl4fz589Dp9OZ3G7WrFmYNGmSK0MlD6D29sbOtESkCBWpI+3EiRORmpqKjh074vDhw8jKysLBgwdx+vRp5OXl4ffff0ebNm1KbTdlyhTpZENkK7W3NyYqRKQIFaV/yrZt27BkyRJERUVh//796NChg2y9r68vunXrhuTkZMTFxcnW6XQ6zJo1y5Xhksp5QnvjrR8iUoTXX38dK1eulJY3bdqEQYMGuTEi5+jXrx/Onz+P48ePy251maLX69GhQwccP35ceq9mzZq4ffs255chm3hCe2NLJyJFqAi3fm7duoWdO3di7ty5Vk8aAODl5YWFCxfK3vvrr7+QlZXlrBDJg3hKe2OiQkRu9/DhQ5w9e1Zarl69Oho2bOjGiJwjMTERTZs2xZAhQ2zepkOHDvD19ZW9d/fuXUeHRh7IU9obExUicruzZ8/KRh544tUUAKhfvz4++eSTMk2o5e3tjebNm5eqh8gaT2lvdk/4JoRAQkKCI2KxS506ddC/f393h0FE5eDo2z5KPS717NmzXPUYzyXz2GOPwd/f3+7YyLGU2OY8pb05JFFZsWIFrl69iszMTOj1ekfEVWZvvvkmExUilXL0iB9POy6lpaVJr3v16mV3feR4ntTmlNbe7E5UtFotkpKSAACFhYU4fPgwpk2bhl27dlnfubc3atSoAX9/fwghoNfrodfrodPpkJeXh/z8fJvjeOqpp8r9GYjIvRx9RcWTjkv379/H9evXpeU33njD7jrJ8TylzSmxvTlleHJBQQGCg4ORk5Njcn21atXw9ddfY+DAgahcubLZevR6Pe7du4crV64gIyMDx44dQ2JiIg4cOFCqbEpKClq3bu2wz0BErlOjRg38/fffAB6NPMjLy4Ofn59D96HW49K6deukzpCNGjVCWloahyarhBrbnCLbm3CSVq1aCQAmf2bMmGFX3QcOHBCNGjWS6vPz8xM6nc5BkRORK2VkZMiODxEREU7blxqPSzExMVKdGzdutLs+ci21tTkltjenpUnZ2dlm1w0ePNiuujt37oxffvlF6snctm1beHvzQdBEauTK+VPUdly6cuUKtm/fDgAYMmQInn32WbvqI9dTU5tTantzSqJSWFiIGzdumFzXqFEjhIeH272PiIgIaSpg9k8hUi9XTZ2vxuPS5MmTYTAYULt2bXz22Wd210eupbY2p9T25pRE5fjx4ygqKjK57plnnnHYfpo0aQKAiQqRmrnqiorajktJSUn49ttvUblyZWzevBl16tRxRHjkQmpqc0pub05JVPbv3292XUxMjMP2U9zZruRDlohIPVx1RUVNxyWdToexY8dCo9Fg1apV6Nixo6PCIxdSS5tTentzSseOnTt3mnzf19cXffr0cdh+cnJyUL16dYSFhTmsTiJyndzcXKSnp0vLtWvXdto3OTUdl8aPH48zZ85g3rx5eOGFFxwWG7mWWtqc0tubw6+oFBYWYu/evSbXdevWDQEBAQ7bV35+Pjp27Fim6YGJSDlOnToFYTRDgrOmGFDTcWnhwoX4+uuvMWXKFMTFxTksLqU6cOAAoqOjpZ9Vq1a5OySHUEubU0N7c/gVlaSkJLOT0zjyUhcAbNmyxaH1EZFrueq2j1qOSzt27MDEiRMxYcIETJ8+3YFRKVdWVhYSExOl5W7durkxGsdRQ5tTS3tz+BWVbdu2mV3nyM5DRKR+rkpU1HBcOnr0KF544QWMHDkSn3zyibvDITspvc2pqb05PFHZunWryffr1auHFi1aOHp3RKRirhrxo/Tj0pkzZxATE4NBgwbhyy+/dHc45ABKbnNqa28OTVSuXbuGM2fOmFxXngzyX//6F2bPnm1vWESkQHq9Hn/88Ye0XKlSJTRr1szh+1H6cSk9PR3R0dHo3r07vvnmG5unK79x4wYuXLjgsDjIcZTc5tTY3hyaqFi61FXWe3KXL1/GnDlzzI5BJyJ1S01Nld3Db968uVNmmFbycenatWuIiopCy5YtsWbNGps/vxACr732Gu7eveuQOMixlNrm1NreXJKoeHt7Iyoqqkx1ffzxx9DpdIocKkVE9ivZP8VZI36Uely6c+cOoqOjERISgg0bNsDX19fmbSdMmIA7d+5wskuFUmKbU3N7c9jXF4PBgB07dphc17lzZ1SrVs3murZu3YoffvgBERERTrkUTETu54qOtEo9LuXk5ODpp5/GxYsXMWTIEHzxxRdWtzEYDLh79y5+++03pKSk2LQNuZ4S25za25vDEpXk5GTpMe0lleWeXEpKCoYOHQoAvJpCZp06dQq5ubnuDgMajQZdunRxdxiq5IqOtEo8Lj148AD9+/fH8ePHAaBcw0L9/f0xbNgwu+Ig51Bam/OE9uawRMXee3InTpzA999/j08//RQPHz4EwESFzBs9ejQOHTrk7jDg5+dndq4EsqzkFZWWLVs6fB9KOy49fPgQzz//PPbt21fuOgBg6NChCAwMtKsOcg4ltTlPaW9OT1S0Wi2+//57fPvttygqKoJOp0N+fj7u37+P3NxcXLt2DRkZGcjJyZFtFxYW5pQDFxG5361bt3Dr1i1pOSQkBDVq1HD4fpR2XIqPj7d4IrPVqFGj7K6DnENJbc5T2ptDEpW///4bycnJJtcZDAbMmzevzHXyagqR53JFR1olHpfmzp2LuXPn2lUHKZfS2pyntDeHJCqJiYnQ6/Um17Vv3x5+fn7Iy8vDgwcPUFhYiIcPH0Kv10On0yE3N9fksCsmKmTJSy+9hE6dOrk7DKcMp60IXNGRlsclcjW2OedwyFHW3KUljUaDn3/+2eLTUHU6HXbs2IGXX35ZuuTVoEEDDrsjiyZMmODuEMgOruhIy+MSuRrbnHM4ZB4Vc3+cVq1aWX1ku4+PD2JjY7FkyRLpveeff94RYamKEAI3btzAvn37kJCQgA8++ACxsbFo3Lgx7t+/7+7wTMrPz8fp06fx3XffYeLEiejevbuiH2xFyuGKKyo8LpGrsc05h91XVM6cOYOrV6+aXPf000/bXE/v3r2l1xXtUpder0ezZs1w/fp1PHjwQLaudevW8Pf3d1Nkpk2dOhUJCQm4evUqhBCydUp9TDgpR35+PlJTU6Vlf39/hIaGOnQfPC651q+//oqsrKxybVs8bLbYiRMnsGLFinLV5eXlhVdffbVc29qLbc6JhJ3+97//CQAmf3bt2mVzPXq9Xmi1WlGnTh2h1+vtDUuVDAaD2LRpk+x3GBcX5+6wStHr9eLevXti//79olmzZlKsWq1WZGdnuzs8Urjk5GRZG+/UqZPD98Hjkmt16tTJ7O/blT9+fn5u+x2wzTmP3bd+zF3q8vf3R9euXW2uJzs7GwaDAc8995zND0nyNBqNBhEREbL3yjrdsitotVoEBgaiS5custkS27Zti6CgIDdGRmrgihE/PC6Rq7HNOY9dv4X8/HwkJSWZXNe7d+8yPUvg4sWLAHipy3hom4+PD7p37+7GaCwTQuD333+Xlvv27evGaEgtnN2RlsclcjW2Oeeyq4/K3r17UVBQYHJdWe7JAY+mRK9ZsyZ69uxpT0iqt3v3bul1p06dFNc/xdjJkyfx119/Sct9+vRxYzSkFs7uSMvjkuvFxcXJJvAri5MnT8o6kMbGxiI2NrZcdXl5eZVrO3uxzTmXXYmKpRnvyvrHeemll9CmTZsKPy+F8cOsoqOj3RiJdbt27ZJe+/r6olu3bm6MhhwpMzMTDRo0cHi9QgicOnVKWtZoNIiMjHToPnhccr3BgweXe9tNmzbJEpUOHTpg3LhxjgjLZdjmnMuuWz/m/jiNGzfGE088Uaa6qlWrVuHHi1+4cAGXL1+WlpXYP8WYcaLSuXNnVKlSxY3RkCMcP34c//jHPxAaGopLly45vP709HTZwyRDQ0MREBDg0H3wuESuxjbnXOVO2TIzM3Hu3DmT68qaQdIjxldTqlatqujGWlRUJLsn6+r+KWvWrMHNmzdduk9TvLy8MH78eHeHYbfjx49j+vTp2LRpk/TevHnzsGjRIofux9m3fXhcIldjm3O+cicqjrzURY9s375det27d29FX/o7cuSI7Juxq/unLFiwQDFPT1ZzomIqQSmWkJCAf//73wgODnbY/kp2pHX0iB8el8jV2Oacr9y3fsz9cby9vVXfqdLU8xZcsU/jjrRq6p8SEBCADh06uDEaKqviWzzt2rUzmaQAQEFBAT799FOH7tfZV1Q8+bhEysQ253zlSlT0ej127txpcl3nzp0RGBhoV1DOtHfvXrzwwgto3rw5AgIC0LhxY7z66qv4+uuvsXv3bowePRqzZ88uU53Z2dlYvHgxBg0ahMjISAQFBaFZs2Z48cUXsWTJEhgMBqt1HD58WPZ47379+kmvDQYDli9fjv79+6Nx48YIDg5GTEyMrANaeezfvx9jxoxB165dUadOHdSuXRvR0dGyIcfmGCcqPXr0gI+Pj12xkGvYkqAY++KLL0o9dt4ezkxU1HxcInVim3ONct1bOHToEO7evWtynfEJVmnGjh2LxYsXIzAwEAsXLkRUVBRu3ryJdevW4e2335YSih9++MGm+m7fvo2PPvoI3333HUJDQ/F///d/iI6Ohq+vL3755ReMHj0aa9euRUJCAr755huEh4ebrcv4tk+DBg3QtGlTAEBKSgpGjhxZ6gC/bds2bNu2DWvXrsXmzZvh5+dn8+/h559/xocffoi0tDS8//77SEhIwJ07dzBixAgkJiYiKSkJhw8fNntZvqCgAAcOHJCW3TF/ytSpU3Hnzh2X77cktUzIZOoWj1arRXh4uNn76wBw7949LF68GJMmTbI7huzsbFy5ckVarl69ukNHFqn1uFQW2dnZSE1NRUpKCo4ePYqjR49i4cKF6NGjh7tDq5DU2OaSk5OxatUqtGrVCm+88QY0Go27Q7KuPNPZTpkyxexUwcnJyY6dO9dBVq1aJcU4e/bsUuuXLVsmrT927JjV+pYtWyaqV68uAIiXX35ZFBYWlirz008/SXU++eSToqCgwGx9nTt3lsq++eabQggh9uzZIwICAkSvXr3EokWLxJYtW8T06dOFv7+/7Hc+efJkm34Ht2/fFkOGDBEARK1atcSePXtk6+fMmSPV+eGHH5qtZ+fOnbL9p6Sk2LR/cr1jx46JZ599Vvb3qlu3roiPjxeXL18WeXl5ombNmhanJQ8ODhb5+fl2x7Jr1y5ZvT179rT/AxpR43Hp8OHDYvz48WLJkiXCYDCYLRcTEyN7XEXxj4+Pj8jNzXVhxI63ceNG2WeaOnWqu0OymdraXEZGhqhcubIU45QpU9wdkk3Klah06NDB5B8mMDBQsc8mMH4Wxfbt20utNxgMonXr1gKAuHfvntl6DAaD+PDDD6W6XnnlFbMHGIPBIBo1aiSVjY+PN1nu77//Fl5eXlK5NWvWiJMnT4patWqJ5cuXlyp/8OBBodFoZAcrSzELIcTFixdFWFiYlKSkpaWVKjN//nypzjFjxpitKz4+XipXq1YtiwdYcq8BAwYIAEKj0Yjo6Gixfv16odPpZGWmT59u9RkqixcvtjsW4/YFQLz77rt212lMbcel8pw0SiZ73bt3d0GkzqXmREVtbc74CzkA0bBhQ3eHZJMyX7e+efMmjhw5YnJdly5dFHkp3GAwyCaZKp6i2JhGo8GwYcMQHBxs8b7iyJEjMWfOHACPnm2zdOlSs5fOSj67Z926dSbL7dq1C3q9HsCjy/Ht27fHkCFDsHjxYgwfPrxU+U6dOiEmJkZa1ul0OH36tNmYT506hS5duuDixYvQarX47rvv0KRJk1LltmzZIr22NBrDuH9K79691XHpsIKaPHkyPvzwQ1y4cAHbt2/H888/X2o02TvvvGP1XvrcuXOlNlpezpw6X43HpcTEROTn50vLK1eutLpN9+7dZX8/pc+15MnU2OZq1qwpW65Ro4abIimbMv8m161bByGEyXXNmze3OyBnEELIRvIsXbrU5Gfo3Lmzxcl55s6di2+++QbAo/kzEhISULlyZYv7rl69uvT6woULePDgQakyxvOntGvXDvHx8RgxYoTF2R5LJhJpaWkmy2VlZWHQoEG4ffs2AGDKlCkm750mJSVJCUhQUBCGDRtmsr7c3FzZPyef76NsnTt3xuzZsxEaGmq2TPXq1a3OBJqeno4ff/zRrlic2ZFWjcel8pw0Lly4IDuWKX10oCdTY5vr37+/lNwGBQXhk08+cXNENirL5ZeCggIRHh5u9vJwcd8KJerevbss1iVLlpQqU1hYKE6dOmVy+927d8tuz4wdO9am/fbt21e23/Pnz5cq06RJE2l906ZNRfv27UVRUZHFeqdOnSqr19TtrKKiItGjRw9Z3wRTfQ1u3Lgh3aLSaDRi/fr1Zve7ZcsW2X5TU1Nt+C2Q0t2+fVtUqVLF4u2fli1blrv+hw8fCl9fX6kub29vi322ykKtxyWdTieioqIEABEUFFSqz5gpixYtkt1eKHkbT43UeOtHrW2u2JUrVxzS78xVbE5U9Hq9ePfddy0eyIKDg0V6eroz4y034860AERAQID4888/bdpWr9eLyMhIadsqVaqIO3fu2LTtk08+KdtvXl6ebH1aWppsvVarFSdPnrRa79ChQ60mDJ9//rmszGeffVaqTHp6uoiIiJBOHtb6IsTFxUn1hYSEWI2T1GPChAlW+6ps2bKlXHWfOHFCVk9ERIRDYlb7cUmIsp00nnvuOelzDRo0yMmRuYbaEhVPaHNqYzFRuXfvnkhKShLz588vdcI191OjRg0xZswYsXbtWnHo0CFx+/ZtV30Wi/R6vWjTpo0s1sjISPHgwQOr25bsgGRrtpybmyu8vb2l7WrXrl2qzOLFi2V1v/jiizbV3aJFC2mbWrVqlfpmlZ2dLRvNUXLkhl6vFwkJCVKZ0NBQsWvXLqv7Le5wDEAMHz7cplhJHa5evSq76mHqp1u3buWq+5tvvpHV88orr5Q7Tk86LpWFXq8XQUFB0mdauHChu0NyCDUkKhW1zSmFxURl3rx5Nv1BLP0MHTrUVZ/FquTkZOHj4yOLb9SoUVa3a9mypWybo0eP2rS/X3/91WoSYvwNSaPRmL31ZOzcuXOyek3dhpo2bZqszMcffyyEEOL69eti3rx50lDH+vXrizlz5tj0je7OnTuy0UarVq2y4bdAajJq1Cir/9P79u0rc70TJ06U1TFnzpxyx+hpxyVbHT16VPYZzp075+6QHEINiUpFbXNKUa7hyWo2a9asUg1o69atZsufP39eVvaJJ56weV/Gt0kAiE2bNsnWFxUVSXOxABBRUVE21Ttp0iSrJ46mTZvKyrz00kuiTZs2wsfHR7Rv317ExcWJX375pUz3uNetWyer8+rVqzZvS+qQlpYm64tl6qd///5lrrd3796yOrZt2+aE6D2b8bGrXr167g6HyGUqXKKi1+tLHTSbNWtmtvPq3LlzZWVHjx5t036KiopEvXr1pO1q164tHj58KCtz4MABWd0rV660Wm9BQYGoW7eutE10dHSpMsePH5fVW79+fTFr1izx22+/iZycHJviN2Xs2LGy3xl5ptdee83qt0NbrvwZq1Gjhmz7mzdvOil6zxUdHS39/njblWyVn58v/vzzT7Fhwwbxn//8RwwZMkQ0bdpUHDlyRFYuMzNTbNmyRcyYMUMMGDBABAcHW/wSL4QQK1euFA0aNBDt27d36gR3FS5REeJR57WqVavKDpzmOgmOHj1aVm716tU27WPz5s2y7ZYuXVqqjPHtGX9//1IdbU0x/lbl7e0tzpw5U6pMyf4AtiZX1hjPjDlu3DiH1EnKc/bsWdktPlM/ZeljkpmZKds2ODjYidErm60njZIKCgpkk8N9++23pcqkpaWJMWPGiIYNG4qgoCAxYMAAkxM7UsWQl5cnWrdubXI0X/Xq1aUv5w8ePBBDhw4VUVFRpb5QxMXFWdxH8+bNpbJ169YV9+/fd8pn8dhEZe/evSIxMdHs+pkzZ8r+IG+99ZbJcrGxsbJytvZPiYmJkbZp166dyVkKu3btKpUZOHCg1Tpv374tAgMDpW2K+52UVHLo8qJFi2yK2ZJr167J6vzpp5/srpOU64UXXrCYqHh5edk8qqFk0t6vXz8nR688tp40zCn52IobN27I1i9cuFD4+fmVqjsiIsIjhjBT+RkMBvHll1/K2sXgwYNNlr127ZrsToC1x1wMGzZMVu+BAwec8AnKMTOtWuzatQvffvut2fVvv/22bLK2jIwMk+VKPvk4ODjY6r53796NrVu3AgACAgKQkJBQapbCnJwcHD58WFru1auX1Xo/+OAD6Um2MTExmDFjhslyeXl5suWyPLDQHOPZaLVaLXr27CktGwwGrF+/3u59kHLEx8dbXK/X6zF37lyb6nLmjLRq4e/vj5SUFOTl5eHLL7+UrYuKioKXl5fF7Y2f0BsZGYk6depIy++++y4mTJiAgQMH4vPPP0eLFi2kdWfOnLH40EnyfBqNBo0aNZK9Z+6BiY8//rhsNvSUlBSzk9oBwKJFi2SzrxtPcOpIHpuoXLp0CUlJSWbXV6tWDR06dJCWzc1Ia/xPDwBVq1a1uF+DwYD33nsPwKPZa1evXo2WLVuWKrd7927ZDJPdunWzWO/SpUuxYsUKAEBERAR++OEHs1M0P/nkk7LlP//802LdxZYtW2b25GOcqLRt21Y2i+bkyZORmZlp0z5IHdq0aYPY2FiLZZYvX45bt25ZravkjLSWHs/g6cpy0jCWmJgovTaeNv+9997D2rVrsXPnTvz4448YN24cpk6dKtv2/v37dsVM6nfo0CHZsqUZjfv37y+9zsnJMTvrOfDoPLpmzRoAj5KUsLAwOyM1zaMTlfT0dBw9etSm8u3btzf5fslvf5cvX7ZYz/Tp03HixAlotVosWrQIAwYMMFlu+/btsmVTz94plpycjPHjxwN49AyJpKQkVKtWzWz5konRDz/8IF2JMeX+/ft48803sWLFCowePdpkGeNExfhAuWbNGpw4cQITJkwwWz+pk7WrKgUFBViwYIHVenhFRa4sJw0AuHv3Lo4dOyYtF///LVq0CL/88guOHTsmu8JZ8llmTZs2tTdkUjnjK3Lh4eGlkmVjrVu3ln0JPn/+vMW6AwICAACDBg2Cj4+PfYGa45QbSgpQv359i0Mpc3JyRLVq1QTwaMixuUelFxYWyiZXmz59utl9rl69Wmg0GuHv7y82btxoMb4nnnhCqtPHx8fsE4i3bdsm9Ut58cUXbZqgTggh+vXrJ7t3GBMTI65duyYro9frxYYNG0TDhg3FgAEDzHaEunHjhskOxTt37hQREREiKyvLpphIfXr16mWxr0pgYKC4e/eu2e1zcnJkHXMrVapU4ftMGD/OIzw83Gr5DRs2yI4VeXl5Yu/evaJJkyYiIyOjVHnj/31b6ifPlpOTI5s/7J133rG6TePGjaXyCxYssFj2q6++EgDEwYMHHRVyKR6ZqBQWFgqtViv9oqdNmyZb//DhQzF8+HABQPj5+VntIHvkyBGpx33VqlXFoUOHSu1vxowZQqPRiK5du9o0dNN4qKFGoxHXr1+Xrb927ZoYM2aM0Gq14vHHHy9z59WLFy/KOt4Cjx4b0K9fPzF27FjxyiuviJCQEFG9enWRkJBgsa6MjAxZPb179xajR8EgL/oAAAjgSURBVI8WjRs35jTRHi4xMdFiogJAzJw50+z2+/btk5Vt27atC6NXnvKcNMaPHy+V79Gjh7hz544IDw8XZ8+eLVW25OggpT9zhpyvZGf2n3/+2eo2xc+gstZGDQaDiIyMFL1793ZkyKV4ZKKSmpoqvL29Rf/+/UXnzp2Fn5+faN++vZg4caKIi4uTnm0zaNAgm0+0ly5dEgMHDpS+1QwZMkRMnTpVjB49WtSvX19069ZNfP/99zbHWFRUJJYvXy5NSR8SEiJGjRol3nrrLdGjRw+h1WpF69atxeeff17uuU8uX74s+vTpY/Lk0qBBAzF16lSb5rMwGAziqaeeKpWscOhjxdCxY0eLiUrJxzMYM36IHgAxYsQIF0evLOU5aRhPCzB9+nTx3HPPiRUrVpgsu3v3bln9a9ascfRHIJUxTnR9fHzM3j0wNnLkSGmbZ555xmy5NWvWCC8vL5GSkuLIkEvxtnxjSJ00Gg2WLFki9V7W6XQ4e/YsTp06haysLMyePRstWrRAw4YNba6zUaNG2Lx5MzIyMnDu3Dn8+eef0Gq1aNmyJeLj4xESElKmGL28vDB8+HAMHz4cV65cQXJyMq5cuQIAGDBgAJYsWWL3veWGDRsiMTERFy5cwIkTJ3D58mU0aNAAYWFhaNu2rdnOuCVpNBrs2LEDq1evRlFREVq1aoXu3bvbFRupR3x8PAYNGmR2/a1bt7B8+XK8/fbbpdaxI62ccd80Hx8fq6P9rl27JusMn5WVhYCAAPzzn/80Wd64061Wq0Xfvn3tC5hUz7jNdenSRepTYkm9evWk1yX7PBUrKirC1KlTMWHCBOf/Xzs1DSIij1DyeVclfxo3bmxyLpCSV+L27NnjhuiVw/jRFtbmqBBCiBUrVshuEYeGhoq//vrLbHnjq18dO3Z0YOSkRiVv2//3v/+1aTvjK6FVq1Y1WWb69OmiXbt2orCw0JEhm+Sxo36IyHGsjQC6dOmSNEyxmF6vxx9//CF7z9RQ/YoiMzMTqamp0nJZhyULIfDBBx/IpgYwdu/ePdkoR3MjDqniKDm69Omnn7ZpO+N5enJzc1FQUCBbf+rUKXz22WdYs2YNfH197Q/UCiYqRGTV4MGDER4ebrHMrFmzZJNDpaamIj8/X1pu0KABgoKCnBaj0pXnpGE8rLRu3boYMWKE2bK7d++GXq+Xlo3nw6CKybjN1axZE23atLFpu5ITm965c0d6XVBQgNdffx1ffPEFQkNDHROoFUxUiMgqrVaLjz76yGKZ06dP49dff5WWOX+KXFlPGufOncP169el5XHjxln89mp89eXxxx+v8P2BKjohhGz+q+joaJv7JT722GOy5b///lt6PXLkSHTp0gVDhgxxTKA2YKJCRDZ59dVXrXZAnzlzpvS6ZEfaipyolOekYXw1RaPRmO1Aa6p8bGwsNBpNOaMlT3DixAn89ddf0nLJW406nc7stiVvLxYnKtOmTUN6ejrmz5/vwEitY6JCRDbx9vbGpEmTLJbZv38/9u3bB4AjfoyV56RhfIWkY8eOFkcWlhwdZHzbR6fT4d69e+WKm9Sr+P+wmPGM4nPnzsWyZcvMblvymT05OTlYtWoVvvrqK6xfvx6VKlVybLBWMFEhIpuNHDkSdevWtVim+KoKb/38f2U9aej1euzZs0datjQ8HJA/4sLb21s2LHn8+PFYu3ZtecImFTN+7EJkZKSU6O7YsQO//fYb3nrrLbPbent7y55rt3LlSowdOxYbNmyQDV12FSYqRGSzSpUqIS4uzmKZX3/9FTt27MDNmzel9wICAlzW8U6JynrSOHr0qOwqSExMjMX6jR/A2qZNG+kks2jRIty4cQNvvPGG3Z+B1MX4uXTFD6rdtm0b3n77baxcudLqE7uNE5X169cjISEBHTt2dEqs1njkhG9E5DxjxozBzJkzZbcySip54o2MjKzQfSbMnTTGjRuHPXv2lDppGN/2qV27ttXbZsYPOixOglavXo0FCxYgOTm5Qv/uK6oqVapIrzdv3oxevXrh7Nmz2LFjB+rXr291+8qVK0uvFy5c6NLOsyXxigoRlYm/v7/Vp2VnZGTIlivybR/A9Enjtddew/r1602eNIw7xvbp08dqonH16lXp9aZNm9C+fXvEx8cjMTGxQg8Jr8iMbxcWFBQgNzcXO3futPl/sfhJyAsWLMDYsWOdEqOtmKgQUZmNHz8egYGBNpev6IlKWU4a+fn5OHDggLRsyzT4xmX0ej1CQkKQlJRUpseEkGcZM2YMNm3ahHnz5mHr1q04cuQIIiMjbd4+NjYWGzduxLvvvuvEKG2jEcYzNBER2Wjy5Mmy4ciWHDx4EJ06dXJyRMq2efNmXLhwAS1atCjTnBa20Ol02LJlC3Q6HSIjI9GsWTOH1U3kbkxUiKhcsrKy0KhRIzx48MBiOY1Gg9zcXPj7+7soMiLyJLz1Q0Tl8thjj2HUqFFWy4WFhTFJIaJyY6JCROX2/vvvW30oWUXvn0JE9mGiQkTlVq9ePYsPygOYqBCRfZioEJFdJk2aBG9v81MyVeSp84nIfkxUiMgujRs3xssvv2x2Pa+oEJE9OOqHiOx27tw5tGjRAgaDQfZ+UFAQsrOz3RQVEXkCXlEhIrs9+eSTeP7550u9z6spRGQvJipE5BCTJ08u9R4TFSKyFxMVInKINm3aIDY2VvYeExUishcTFSJymPj4eNkyR/wQkb3YmZaIHKpPnz7YvXs3vL29kZeXh0qVKrk7JCJSMV5RISKHKr6q0qxZMyYpRGQ387M0ERGVQ9++fdGxY0eEhYW5OxQi8gBMVIjI4f71r3/h3Llz7g6DiDwA+6gQkVOkp6ejSZMm7g6DiFSOiQoREREpFjvTEhERkWIxUSEiIiLFYqJCREREisVEhYiIiBSLiQoREREpFhMVIiIiUiwmKkRERKRYTFSIiIhIsZioEBERkWIxUSEiIiLFYqJCREREisVEhYiIiBSLiQoREREpFhMVIiIiUiwmKkRERKRYTFSIiIhIsZioEBERkWL9P7DBuqKuY3VkAAAAAElFTkSuQmCC;strokeColor=none;strokeWidth=0;points=[];labelBackgroundColor=none;rounded=0;html=1;whiteSpace=wrap;" parent="De4PDz4b7LUJne9OW4_j-1" vertex="1">
            <mxGeometry x="420.73793163891327" y="281.86619168151" width="241.99228348615756" height="67.37285165239614" as="geometry" />
          </mxCell>
        </UserObject>
        <UserObject label="" tags="Background" id="p8jLqkasfTIFGXJYe00s-36">
          <mxCell style="vsdxID=36;fillColor=#FFFFFF;gradientColor=none;shape=stencil(nZBRDoQgDERP03+WHsHFe5iISyOCQdT19kIaIxq//Jtp3zTpAFaTaUYNUkwx+F6v1EYD+AUpyRkdKCYFqACrzgf9C352LfuxyWRWg1/yhT/nRE5IsZWuZtCSK8CPeI0e/hF+jV7AJM4PO7KWCyr390bSiNtEtQM=);strokeColor=#000000;strokeWidth=2;spacingTop=-3;spacingBottom=-3;spacingLeft=-3;spacingRight=-3;points=[];labelBackgroundColor=none;rounded=0;html=1;whiteSpace=wrap;" parent="De4PDz4b7LUJne9OW4_j-1" vertex="1">
            <mxGeometry x="156.74550394390886" y="195.2438986281679" width="171.87007011393516" height="41.24871097778195" as="geometry" />
          </mxCell>
        </UserObject>
        <UserObject label="&lt;div style=&quot;font-size: 1px&quot;&gt;&lt;p style=&quot;text-align:center;margin-left:0;margin-right:0;margin-top:0px;margin-bottom:0px;text-indent:0;vertical-align:middle;direction:ltr;&quot;&gt;&lt;font style=&quot;font-size:18px;font-family:0;color:#000000;direction:ltr;letter-spacing:0px;line-height:120%;opacity:1&quot;&gt;&lt;br/&gt;&lt;/font&gt;&lt;/p&gt;&lt;/div&gt;" tags="Background" id="p8jLqkasfTIFGXJYe00s-37">
          <mxCell style="verticalAlign=middle;align=center;overflow=width;vsdxID=37;fillColor=#FFFFFF;gradientColor=none;shape=stencil(nZBRDoQgDERP03+WHsHFe5iISyOCQdT19kIaIxq//Jtp3zTpAFaTaUYNUkwx+F6v1EYD+AUpyRkdKCYFqACrzgf9C352LfuxyWRWg1/yhT/nRE5IsZWuZtCSK8CPeI0e/hF+jV7AJM4PO7KWCyr390bSiNtEtQM=);strokeColor=#000000;strokeWidth=2;spacingTop=-3;spacingBottom=-3;spacingLeft=-3;spacingRight=-3;points=[];labelBackgroundColor=none;rounded=0;html=1;whiteSpace=wrap;" parent="De4PDz4b7LUJne9OW4_j-1" vertex="1">
            <mxGeometry x="156.74550394390886" y="339.61438705040473" width="171.87007011393516" height="41.24871097778195" as="geometry" />
          </mxCell>
        </UserObject>
        <UserObject label="" tags="Background" id="p8jLqkasfTIFGXJYe00s-38">
          <mxCell style="vsdxID=38;fillColor=none;gradientColor=none;image;aspect=fixed;image=data:image/png,iVBORw0KGgoAAAANSUhEUgAAASwAAABaCAYAAAACcWsdAAAABHNCSVQICAgIfAhkiAAAABl0RVh0U29mdHdhcmUAZ25vbWUtc2NyZWVuc2hvdO8Dvz4AAAA9aVRYdENyZWF0aW9uIFRpbWUAAAAAADIwMjPlubQwNuaciDE05pelIOaYn+acn+S4iSAwOeaXtjU55YiGNTHnp5LeyR0SAAAfd0lEQVR4nO2deVxU9f7/X8MsCIggIILkhijglqiI4gJirqTXFO3mVmrXh7e0W3atuC65kZVL2VVLr3WxUpPskoW5pCm5oChogUu4oIAgooCIIMMw7+8f/ub85swMzDkzZ0bGPs/HYx6Ps72Xs8z7fD6f8/m8PzIiIjAYDIYD4PS4HWAwGAyhsIDFYDAcBhawGAyGw8ACFoPBcBhYwGIwGA4DC1gMBsNhYAGLwWA4DCxgMRgMh4EFLAaD4TCwgMVgMBwGFrAYDIbDwAIWg8FwGFjAYjAYDgMLWAwGw2FgAYvBYDgMLGAxGAyHgQUsBoPhMLCAxWAwHAYWsBh/Gv744w8cOnTocbvxRLJ//35cu3bN5nZYwGL8Kdi+fTvCwsJw5syZx+3KE0lqaiq6d++O5ORkm9phAYvxxPPxxx9j8uTJmDx5Mt5+++3H7c4TSUJCAiZNmoTx48dj8+bNNrMje5yz5ty7dw8pKSnIzMxEVlYWioqKUF5ejtraWvj6+qJt27YYPHgw/vKXv6BDhw4N6jpy5Aji4+ORlpZmJ+8ZjsD69esxd+5cDB06FD/99BMUCsXjdumJpa6uDqNHj8a+ffuwZcsWzJgxQ3Ibdg9Y1dXV2LNnD3bs2IE9e/agpqaG26dSqdCiRQt4eHigrKwMt2/fRl1dHZycnDBu3DisWbMGbdq0MdKZkZGB6OhodO7cGadOnbLn6TAaMcnJyYiLi0NISAhOnDgBDw8Pq/RduXIFP/zwA8rKyiTyUBiurq6YNWsWvL297WrXEiorKxEZGYmLFy/ixx9/xIgRI6Q1QHaioqKC5s+fT+7u7gSA+3Xp0oVWr15NZ8+eJbVazZNRq9W0d+9emjx5MslkMnJ3d6fk5GTeMTk5OdSiRQsCQG+99Za9TofRyLlw4QK5ubmRUqmkc+fOSaJz/vz5vGfXnr+dO3dKcg724LfffiOVSkWenp507do1SXXbvIRFRNi6dSvi4+Nx69YtAI9KUi+99BJmzpyJPn36CNJz8uRJvPDCC8jPz8f27dsxceJEFBUVITIyEtevXwcA7NmzB6NGjbLVqTAchOrqaoSHh+P8+fNYtGgRli1bJoneyspKXLp0CVVVVaipqUFBQQHWrFmD8+fP845zd3dHQkICQkJC4OLiAplMZlIfEaGmpgZVVVUoKSnB5cuXcfToUaSlpUGr1fKOPXDgAIYOHSrJediD9957DwsWLEDPnj1x8uRJKJVKaRRLGv4MyMjIoPDwcN6bIjIyks6fP2+Rvhs3blD79u2pSZMmdPToUerWrRunVy6X07179yQ+A4YjoisJde7cmWpqamxqa+PGjUalocWLF1ulMycnhwYOHMjTeenSJYk8tg8ajYY6d+5MAGjp0qWS6bVZwPrmm2+oSZMm3AV3d3en9evXk1artUrviRMnyMnJiZycnHg3tFevXhJ5znBkMjMzSaFQEADavXu3ze1Nnz7dKGClp6dbrbeyspJCQkI4nQ8ePJDAW/uya9cuAkAqlYqys7Ml0WmTgLVs2TKSyWTcxfbx8aHMzEzJ9L/88stGD8m8efMk089wXAYNGkQAKCwszC722rVrx3sOmzVrRhqNRhLdmzZtIgDk7e0tiT57o9VqqWfPngSARowYIYlOSQPWw4cPadKkSbwb6O/vb3EVsD7Onj1rFLDs8TZlNG727dvHPQ+GH2dswfXr142ew2effVYy/WlpaQSAevToIZlOe5OUlMRdm0OHDlmtT7KApdVqKS4ujnfzWrVqRZcvX5bKBI/Q0FDOjpOTE5WWltrEDsNxiIiIIADUtm1bq5sehJCYmGgUsFavXi2Z/oKCAgJAo0ePlkynvampqeG+4kdHR1utT7Ke7osWLcKuXbu4dblcjp07dyIoKEgqEzz69evHLXfv3h3Nmze3iR2GY/Dbb79xffCmTJlS75c5KUlNTTXaFh0dLZl+Pz8/ADDZ99BRUKlUePHFFwE86tx9+fJlq/RJErC+/vprJCQk8LYtX74cAwYMkEK9SXr06MEtR0VF2cwOwzH44osvuOUpU6bYxeaRI0d46x4eHggLC5PcTuvWrSXXaU+mTZvGLX/++edW6bI6YKWlpeHll1/mbevXrx/eeecda1U3iI+PD7fMAtafG7VajW3btgEAnn76aYSEhNjcZl5eHnJzc3nbBg0aBCcn6YbnVlRUAHDsEhYAdOvWjQu6iYmJ0Gg0Fuuy6urW1tZi+vTpvOE1MpkMH330kc2L5J6enpy9gQMH2tQWo3Gze/du3L17FwDwzDPP2MWmYekKkLY6CAA3b94E4PglLAAYOXIkAKC4uBgpKSkW67EqYK1fvx5//PEHb9ukSZMQERFhjVpB6AJily5deKUtxp+PnTt3cssxMTF2sWmq/Wrw4MGC5ZctW4bvvvuuwWPKysogk8nQsWNH0f41NvTHFFqVgsbS1vrbt2+Th4cH7wuJTCazW49cXae0OXPm2MxGXV2d1Tos/VolhW1T2OPrmb3x9fUlAKRQKKiiosIuNgMDA3nPvqenp+B7Vl1dTW5ubvThhx+aPfbmzZvWutooKCws5K5V+/btLdZjcQlr4cKFuHfvHm/biBEjEBwcbKlKUVRWVgKApOOrjh07htmzZyMyMhL+/v5QKBTw8vJC7969sXDhQly5ckWwrsTERISHh6NJkyYIDAzEtGnTcOPGjXqPv3XrFhYvXoy+ffvC29sbCoUCAQEBiImJwZIlS7jztYQTJ04gNjYWLVu2hIeHBwYOHMgrlZhj7dq18PPzQ6tWrbB//36L/bAFly5dwu3btwEAwcHBcHd3t7nN/Px8o+yaYtqvDh48iAcPHgiqQrZq1coSFxsd/v7+3FfP3NxcFBQUWKbIkihXUFBgNDQGAO3du9fiyCkWtVpNFy5csLrEoNVqacuWLdShQwcCQG5ubjRz5kzavn07/fzzz7Rq1SoaOnQo9wafO3eu2fFp8fHxpFQq6c0336S9e/fS888/TwDIxcWFfvnlF96xFRUVtGjRInJzc6Nu3brR8uXLKSkpiX7++Wf64IMPuNJDq1at6MCBA6LPb8GCBeTk5ETTp0+n5ORk+uKLL7ghU//85z/Nym/dupV3j318fOj+/fui/bAVut7gAGjixIl2sfnVV18ZPftr164VLB8XFydpj3hHYdSoUdz12r59u0U6LApYa9euNbphvr6+NqvG2Irs7GwaMGAAdw4zZsyodwD1hx9+yAXpyMjIeqsehw4dIgD02WefcdsqKirI2dmZAJCfnx/dvn2biB4N5g4JCSFvb+96e2ZnZ2dzY+O8vb3p1q1bgs8vISGBXF1dKSUlhbd9+PDhXBU+LS2tQR0jR440uteG+h4nU6ZM4fxasmSJXWzOnDnT6JqcPXtWkOzhw4dJLpdTbGysjb1sfLzzzjvc9XrllVcs0mFRwDLMwACAZs+ebZEDj4vdu3eTi4sLV/L56quvzMroP6jjxo0zeUxkZCQNGDDAaLt+m8dnn31GOTk5FBAQQIMHD6aCgoIG7Q4bNoyTfemllwSd36lTp0gul9O2bduM9o0YMYLTZ66Upf+Q6X6ffPKJIB/sQa9evTi/duzYYRebutK47te8eXNBL+uLFy9yvb6l7BHvKHz66afcNYuJibFIh+iAdeXKFaMHGADt37/fIgceB5s3bya5XE4ASKlU0k8//SRI7vLly5wcTIxfzM3NJcB0sjV/f39ObtiwYRQSEkJDhw4VVC144403ONmOHTsK8jUiIoKGDRtmcp/+gF1zb3q1Wk39+vXj3es1a9YI8sEeNG/enPPr559/trm9/Px8o2d/wIABlJ2dzftlZWVRZmYmpaamUmJiIsXGxvKaUTIyMmzua2Pjxx9/5M4/MDDQIh2iA1ZCQoLRDVMqlQ6T/uKbb76xuO2BiD+GMTw8nLfvvffeo2bNmhllTn348KFRm19QUJDg8Y/6pRwnJyez1/r48eMEgI4fP260r7CwkJdJY9q0aWbtX716lZcp9ptvvhHkt60pLy/nXVMp0rqY4+uvvzb5whbzE/NF8UlCP2mBQqGwqA1PdEb+o0ePGm3r06cPXF1dxaqyO1lZWZg5cya3HhUVhddff12UjsDAQFy8eBEAcPr0ady8eRMBAQEAHvUHGjJkiFF2xYyMDF4GSaVSif/973+Cxz8WFxdzy1qtFrW1tQ0ev3btWoSFhSEyMtJo37fffgvSSzJr6hhDAgMDsXjxYsyfPx8AEBoaKshvW2PY09zanO1CMNVhdMaMGUbPP/2/bKKlpaW4cOECLl26xO2Tuke8o6D/xVOj0eDmzZvie/GLjXABAQFGb4w33nhDdKS0N9XV1UZtD4Zf7IQwY8YMng7d145bt24ZNbbrWLlyJU9GbO4uXRYCwHxupLt375JcLqcPPvjA5P4+ffrwSsZ37twR5IOuKUChUNDDhw9F+W8rDhw4wLuuxcXFNrcZFBTEs9myZUtBcnv27OGaEz766COr/dBoNJSenk5FRUVW67IXDx484F27U6dOidYhKsxXV1dzwwX06datmxg1j4V169bh6tWr3HpERISonsk6DPue6a5HZmYmZDIZNwRBH8Ne0WJKdWq1Gr///ju3bm66s/T0dGi1WsTFxRntu3jxItLT07n12NhYwTOxtGvXDk5OTggODoazs7NA723LgwcPeOu2LmHdvHnTqC+e0HGso0aNQv/+/QGI6xFviocPHyI6Ohp9+vRBx44duWFJjR0XFxfeenV1tWgdogJWeXm5ye2NpYpQH3fv3sXKlSt52/7+979bpMuwGqKb8umZZ57B+fPnjYq4Go0Gx44d49Y7duwoamzYsWPHeDfW3LCnIUOGIDs7G4GBgUb7tm7dylvXH0VvDl2V1pYZOMRSVVXFLTs7O9s8kFqbTsbT0xNeXl5Wv+CTkpK4Z6qystJoEozGikwm490j/fsnFFEBSzd63BB7jiavqKgQHZk//fRTXslIoVBg9OjRom1rNBqjh8PX1xfAo3YpU4E7IyOD10t90KBBomwa9iwfNmxYg8crlUp07tzZaDsRYfv27dy6l5cXYmNjBftx9epVaLVayQf4WoP+A/+42q/EZAopLCxEVFSU1e1X+qXsQYMGCWqHbCzol7IMS8hCEHXl6hv2oPvT2oP+/ftjxYoVomSSkpJ461FRUfDy8hJtOzs7m5eZAjA/kt7wIRdbHdAPWEql0uKAcfToUeTn53Pr48aNg0qlEix/4sQJAOIDri2Ry+XcsjUpS4RiWMJq0aKF4NpFbW0tsrOzra4OAo/+A7/++iuSk5Nx8OBBh5rNWv//Y4nfoiR8fX0hk8l4X5kUCoXdLtjZs2eRnZ2NJUuWCJbJyclBVlYWb5uYkoU+Z86cMdrWvn37BmUOHz7MWxfzwObn5/ParwYMGICmTZsKltfHMGhPmDBBlHxqaiq6d+/eqMa26X+Zq6/0LxWFhYXIycnhbYuKihKcRunq1at4+PChZGNfHTGlUm1tLa92ZEnPAlElLN1gYH00Go1FjWeW8J///Aeenp6iJkvVbz/SoZ9eWQz79u3jrbdq1YqX+dQQjUaD48ePc+vBwcGi/vBJSUm8l8PEiRNFeMvn+++/55a9vLxEpWHRaDRISUnB888/b7F9W6D/wGs0GovaRIRiqv1KTHUwJCQE169ft0tywcaKYRu4zQMWAHTt2tVom260vC0pKSlBYmIiZs6cafS1oSH0q0HAoxzTlqSxVavVOHDgAG/b+PHjG3zDnjlzhtd+JbY6oJ9RQS6XY9y4caLkdWRlZfG+7g4fPlxUqTg1NRWlpaWiS2W2xrC0afgFV0qkyN/etm1bibxxTAzvj5ubm2gdogOWqepUUVGRaMNiWblyJZycnLjOi0IxDFjdu3e36GvS4cOHcf/+fd62SZMmNShj2H4l5o2cm5uL06dPc+vR0dEWtxXql/IA8YEzMTERYWFhjS6RnGH7oS2rhYb30tvbG126dLGZvScRwxLWU089JVqH6IBlqjpmqtolJenp6Vi3bh0WLFiAli1bipJVq9W89U6dOlnkg2GXgNGjR6Nv374Nyhg+5GIarL/++mve+uTJk42OISLMnTsXeXl5Deo6efIkb11MyaCkpATffvst5syZI1jm9OnT2LBhA7Zu3WrUDcQUp06dwsqVK41eLuZo06YN74ubrUpYRUVFRpl1xbRfSUFubi4SExPx6aefmmxLFSq/ceNG3ouwPvLy8vDBBx8YPTvWoH9/3Nzc0KJFC/FKLOmxqt/zGgBFRUVZokYQ1dXV1KVLF+rZsyfV1taKln/zzTet6mVO9GhQs/6gZ7lcThcuXGhQRq1Wk5ubm+hByzr0e1Q3adLEZNqbX375hQBQVlZWg7piYmJ4vdvF5BBbvnw5BQQEmM0BRvRoevVRo0aRp6cnjRo1iry8vEipVNbb656IKCUlhRtn2alTJ6qurhbsGxHRU089xZ3bvn37RMkKZceOHUajO9atW2cTW6ZYuHAhubq60uDBg6lz584EgOLi4gT/HxYsWECurq4UHR1NnTp1Miufn59P3t7eBICcnZ0lmwj5u+++465f165dLdJhUcDS5XzS/wNfuXLFIgcaQq1WU2xsLHl5eVmsf8uWLTxf//GPf4jWMXfuXJ6O+Ph4szInTpzgybz88suC7elm/NX9JkyYYPK46dOnU4cOHczqCwsL43S1bdtWsB8lJSXk4eEhaIB4TU0NDRs2jIYNG0Z3794lIqLPP/+cgEd5t1JTU03KvfDCC7xzFZsEcuDAgZzsxo0bRckKZfbs2UYB69y5czaxZciSJUuoXbt2lJmZSURExcXFnA/Lly8XJN++fXv67bffiOjRQHZz8vpJEQHQ22+/Lcm5/Pvf/+Z0Wjo5rMU53fVzNAGg8ePHW6rKJBqNhsaPH08qlcqqtCF5eXk8P0eNGiVKPisri8ubBYBGjBghaKT9e++9x7P75ZdfCrYZHx/PkzVMY0NEVFVVRe7u7oLGpQ0ZMoTTJWba8zlz5pC/vz9VVlYKOrZDhw68Y7dv387Zfeedd0zKJScn87JHfP7554L9IyJ67bXXONnXXntNlKxQQkJCePdDaP4ra9m1axcplUpeKhrdbNAAqE+fPmblVSoVF6yI+LnV+/bta1Lu6tWr5OXlxR03depUSc5HP/C/++67FumwOGAVFRXxiuMAaNeuXZaq41FaWkrPPfccqVQq+vHHH63Wp5+wLigoSLDc/fv3KTg4mJMNCQkRnBLGMKDfuHFDsF39VLKurq4mq2MfffQRubu715shVR/9AdtCB+sePXqUlEqloDxnubm5pFQqjUpH+nm86gtYRPyURWKfId1kJADqzf9lDfp/cN1vzJgxktsxRKPRUHBwML355pu87cnJyYKaYnTyhqWj3bt3mw1YRI8yoyqVSgKkm+hFvzR88OBBi3RYHLCIiDIyMsjV1ZVzwtnZmQ4dOmSNSjpw4AAFBASQt7e3ZEkBddk3ddWTkydPmpWpqqqiZ599lju3fv36Cc5sYNh+JTZZ2V//+ldONiwszGh/SUkJeXp6Ci6q6z+kAMymWS4oKKCWLVvS66+/Lkj/K6+8Qu3bt+e1jWk0GvLz8+NsHjlypF75uro6LhHf6dOnBdnUoV9FEhqMxbB582ajgLVixQrJ7Riyc+dOkslkdPnyZd728ePHc34sW7asXvmkpCSSyWR07do13va4uDhO3lxK6TFjxhAAWrVqleUnooeu1KZQKASV2k1hVcAietTe0qpVK+4iqFQqev/990UXmS9fvkwzZswgmUxG/fv3p7y8PGtd4/H+++9zPoaHhzfoX2FhIfXu3Zs7fuLEiVRVVSXYVnp6Ou8BnzFjhihfV61axcmOHTuWt0+tVtPYsWOpQ4cOgn2qra2lrl27cjrnz59f77HXrl2jp59+mnr27Ck4jUzPnj0pISGBty0lJYWz165dO7MN/aNHjyaFQiG60Z2IeKXgnJwc0fL1cf78eV6mWN1v8uTJNp9AYt68eTR06FDetqKiIq7U4+TkRNevXxclf/fuXVKpVNyL21y78Jo1awiQJpPrhQsXuOsXERFhsR6rAxbRows5aNAg3k3t0qULbdq0qcF54qqqqmj//v30/PPPk5OTE/n4+NDatWst+hoohISEBK69JCYmxigolpeX09KlS7m3fdu2ben7778XbeeTTz7hXQtTedUboqysjMs79vTTT3N/9oqKCoqNjSUfHx/Kzs4WpfP8+fPUsmVL7g1n2Pal1Wppx44d5OHhQX379hVc9SUik4FzwoQJ3PkvXbrUrI4XXniBevbsKdimPrNmzeJsbdmyxSId69evp+HDh9PAgQOpd+/eRs0dhj9XV1cKDQ2lfv36UVRUFEVHR9PYsWMle3bVarWRLv12UXPVX1PyGzZs4OQHDx5s1odNmzaRXC6nsrIy8SdggL5tIR+t6kOSgKVj9+7d1KNHD96Nlcvl1KtXL3rxxRdp3rx5NG/ePJo6dSpFRUVxM8n4+PjQ4sWLBbXHWEtqairXLUOlUlGvXr0oLi6OwsLCOH969+5Nn3zyicVpn9etW8edf48ePSwqNZw8eZKbuCI0NJTGjBlDHh4e1KtXL7PdGOojPz+fJkyYwAVtPz8/GjlyJI0dO5Zat25Nrq6u9O677xqleBZLeXk5dy0BUG5urlmZTp060YIFCyyy9+uvv1rdQDxu3DiSyWSkVCqpadOm5O3tTQEBARQYGEjBwcHUuXNnCg4Opg4dOlDr1q3J19eXPD09ycXFhRQKBclkMurUqZPNXrZarZbX1SUpKUm0Dv3uSImJiWaPnzVrFvXv398Sd43Qr4pevHjRYj0yIr3BahJARDh27Bj27t2Lffv24ffff0ddXR3vGGdnZ7Ru3RpDhw7F+PHjER0dzRt5bw9ycnJw4MAB5OXloaKiAq1bt0a7du3Qu3dvqyeDrampwZYtW3Dnzh387W9/s3jA8IMHD5CcnIxz587B1dUV4eHhiI2NtTo9yc2bN3Hw4EFcv34dt27dgoeHB0JDQ/Hcc8+hWbNmVukGgG3btmHKlCkAHuXvMtf58OrVqwgKCsLx48ctTpUSGhqKS5cuoXnz5iguLjZKU+3oHDlyhBuh4O3tjcLCQlHZNgoKCtCmTRsQEVQqFW7fvt1gSh6tVovAwEDMmjUL//rXv6zyXa1Ww8/PD2VlZejXrx+X+cMiJAmfDVBXV0fFxcX0+++/U0ZGBhUXFz+R06Uz/j/6b9OGOo3qeOuttygoKMiq52L16tWczT179lisp7GiP/+i0I8h+qxfv56THzlypNnjf/rpJ7PtZELR7zC6efNmq3TZPGAx/nzo2soA8zPZ1NTUUIsWLej999+3ymZJSQnXoCxVv6HGQllZGa8voGHP86KiIrNVUd3s4wDoww8/NGtzzJgxNGLECKv81vHcc88R8Gj+T2ubfVjAYkhKaWkp98dwcnIy2x62bds2cnd3p5KSEqttT5o0iQCQm5sb19v+SUC/wXrgwIG8faWlpeTq6mp2WFL37t05Hea6Ht24cYPkcrkk3Yr0XySWzvasz59vriGGTdEfbO7t7d1gW1J1dTUWLlyI+Ph4+Pj4WG17yZIlUCgUePDgATZs2GC1vsbCtm3buGX9aeqAR4PkZTKZ2YH4+vfFz8+vwWPffvttxMTEmE3HLYS1a9dCrVbDxcUFCxYssFofK2ExJKWuro7rTOzu7t5gu9S8efMoMDBQVB83c7zyyivcl2dHmdy3IWpqargvriqViu7fv8/t02g01KVLF0EdiIcPH86VsM6cOVPvcT/88AM5OzvzhvNYSmlpKTcB71tvvWW1PiJWJWTYgGnTpnF/jrS0NJPHbNq0iZo2bWpxF436uHPnDvn6+kraQ/txUl1dzXUWDQ0N5e1bsWIF+fj4CKpOf/HFF9w9WblypcljMjIyqGnTpvTf//5XCtdp0aJFBIDatGnDC7TWwAIWQ3Lu3bvH9awPCgqigoIC3r5XX32VmjVrZrOveUlJSVxblpgxnI2VsWPHEgDy9/fnSqwff/wxeXp6mv2ooY/uReLi4kKHDx/mtms0Gtq4cSO5u7ubHa4jlJycHO5DQUpKiiQ6iVjAYtiIwsJCmj17Nrm4uJBKpaI+ffpQjx49SKFQ0ODBgwV1JrWGqVOnEgB69tlnbWrHHty+fZuio6O5F4C/vz899dRTogcQq9VqWrFiBTfGs2vXrhQZGUlubm4UGBho0UzoptBqtdzIFyka2vWRvOMog6FPeXk5srOzkZ+fj2bNmiEiIkKSBnZzVFVVISIiAtnZ2fjyyy8xdepUm9u0NZmZmbhw4QL8/f3Rv39/NGnSxCI9utnE8/LyUFtbi/DwcJMT71rKhg0bMGfOHPTq1QvHjx+XdIJbFrAYTyy5ubmIjIxEeXk5Dh8+bPZLGsN6jh8/jiFDhqBly5ZIS0uTfFo4FrAYTzTnzp1DTEwMlEolTp48aXYeSYblXLlyBX379oVcLseRI0cETzIrBtYPi/FE06NHDxw6dAjAoxmf7t69+5g9ejK5c+cOYmNj4eLiYrNgBbCAxfgTEBYWhvT0dDRt2hTx8fGP250nkldffRV+fn5IT0+3WbACWJWQ8SdCq9WisrJSkowUDD4VFRVwd3e3+dRnLGAxGAyHgVUJGQyGw8ACFoPBcBhYwGIwGA4DC1gMBsNhYAGLwWA4DCxgMRgMh4EFLAaD4TCwgMVgMBwGFrAYDIbDwAIWg8FwGFjAYjAYDgMLWAwGw2H4Px1FG9pKlwnfAAAAAElFTkSuQmCC;strokeColor=none;strokeWidth=0;points=[];labelBackgroundColor=none;rounded=0;html=1;whiteSpace=wrap;" parent="De4PDz4b7LUJne9OW4_j-1" vertex="1">
            <mxGeometry x="182.869754601227" y="199.36876972594607" width="119.62118558690743" height="37.123816216626444" as="geometry" />
          </mxCell>
        </UserObject>
        <UserObject label="" tags="Background" id="p8jLqkasfTIFGXJYe00s-39">
          <mxCell style="vsdxID=39;fillColor=none;gradientColor=none;image;aspect=fixed;image=data:image/png,iVBORw0KGgoAAAANSUhEUgAAATcAAABUCAYAAADnNXByAAAABHNCSVQICAgIfAhkiAAAABl0RVh0U29mdHdhcmUAZ25vbWUtc2NyZWVuc2hvdO8Dvz4AAAA9aVRYdENyZWF0aW9uIFRpbWUAAAAAADIwMjPlubQwNuaciDE05pelIOaYn+acn+S4iSAwOeaXtjU55YiGNTXnp5JRq4pFAAAgAElEQVR4nO2deXxM9/rHP8lkJpvIKmsJsWSxZVOSZkOtKbVVa6taut2ii6pyS1uqq1Kuautqb7T2UnVRQVVVECFoExERS2WRCEJkkcny/P7wm3PPmZnMnDNzJiG+79frvF5zzny/z/Oc7Tnf9flaERGBwWAwmhnWTW0Ag8FgWALm3BgMRrOEOTcGg9EsYc6NwWA0S5hzYzAYzRLm3BgMRrOEOTcGg9EsYc6NwWA0S5hzYzAYzRLm3BgMRrOEOTcGg9EsYc6NwQBw7tw57N+/v6nNaPbs2bMHFy9ebBRdzLkxHnrWr1+PsLAwnDhxoqlNafYcPHgQ3bp1w7Zt2yyuizk3xkPNF198gXHjxmHcuHGYPXt2U5vT7Fm0aBHGjh2LkSNHYtWqVRbVZXW/hTy6ffs2du7ciZMnTyIjIwNXr17FrVu3UFNTA09PT/j7+6N379548skn0b59e4Oyfv/9d8yZMwdHjx5tJOsZDxIrVqzA9OnT0a9fP/zyyy+wsbFpapMeCurq6jBkyBAkJydj9erVmDx5skX03BfOraqqCrt27cKGDRuwa9cuVFdXc/+pVCq0atUKzs7OKC0txbVr11BXVwdra2uMGDECn3/+Odq0aaMjMz09HQkJCQgJCcGxY8ca83QYDwDbtm3DqFGjEBQUhCNHjsDZ2dksebm5ufjvf/+L0tJSmSwUh4ODA1544QW4u7s3ql5zKS8vR3R0NM6ePYsdO3Zg4MCB8iuhJqSsrIxmzZpFTk5OBIDbOnfuTIsXL6ZTp06RWq0W5FGr1bR7924aN24cWVlZkZOTE23btk2QJicnh1q1akUA6K233mrMU2I8AGRlZZGjoyMplUo6ffq0LDJnzZoleIYbc9u0aZMs59DY/Pnnn6RSqcjFxYUuXrwou/wmKbkREdasWYM5c+agqKgIwL0S2nPPPYcpU6bg0UcfFSUnNTUVY8aMQV5eHtavX4/Ro0fj6tWriI6OxuXLlwEAu3btwuDBgy11KowHjKqqKvTo0QNnzpzBvHnzsGDBAlnklpeXIzs7G5WVlaiurkZ+fj4+//xznDlzRpDOyckJixYtQlBQEOzt7WFlZaVXHhGhuroalZWVKCkpwfnz53Ho0CEcPXoU9fX1grR79+5Fv379ZDmPxubDDz/EP//5T4SHhyM1NRVKpVI+4bK7SyOkp6dTjx49BF+e6OhoOnPmjEny/v77b2rXrh3Z2dnRoUOHqGvXrpxchUJBt2/flvkMGA8ymhJWSEgIVVdXW1TXypUrdUpZ8+fPN0tmTk4OxcbGCmRmZ2fLZHHjU1tbSyEhIQSA3n//fVllN6pz27hxI9nZ2XE3xcnJiVasWEH19fVmyT1y5AhZW1uTtbW14KZHRETIZDmjOXDy5EmysbEhALR9+3aL65s0aZKOc0tLSzNbbnl5OQUFBXEyKyoqZLC26diyZQsBIJVKRZmZmbLJbTTntmDBArKysuJuiIeHB508eVI2+VOnTtV5kN544w3Z5DMefOLi4ggAhYWFNYq+tm3bCp7Hli1bUm1trSyyv/nmGwJA7u7usshrSurr6yk8PJwA0MCBA2WTa3HndvfuXRo7dqzgJvv4+JhcDW2IU6dO6Ti3xvg6Mx4MkpOTuedCuwPKEly+fFnneXziiSdkk3/06FECQKGhobLJbEo2b97MXaf9+/fLItOizq2+vp5GjRoluMG+vr50/vx5i+gLDg7m9FhbW9PNmzctoofx4NGzZ08CQP7+/mY3g4ghKSlJx7ktXrxYNvn5+fkEgIYMGSKbzKakurqaG+GQkJAgi0yLzlCYN28etmzZwu0rFAps2rQJHTp0sIi+qKgo7ne3bt3g6upqET2MB4s///yTG+s4fvz4Bnso5eTgwYM6xxISEmST7+3tDQB6x3g+iKhUKkycOBHAvcH358+fN1umxZzb2rVrsWjRIsGxhQsXIiYmxlIqERoayv2Oj4+3mB7Gg8V3333H/R4/fnyj6Pz9998F+87OzggLC5NdT+vWrWWX2VQ8++yz3O9vv/3WbHkWcW5Hjx7F1KlTBceioqLw9ttvW0Idh4eHB/ebOTcGAKjVaqxbtw4A0L17dwQFBVlc55UrV3Dp0iXBsbi4OFhby/e6lZWVAWg+JTcA6Nq1K+esk5KSUFtba5Y82Z1bTU0NJk2aJJhCZWVlhaVLl1q8OuDi4sLpi42NtaguxoPB9u3bcePGDQDA448/3ig6tUttgLxVUgAoKCgA0LxKbgAwaNAgAEBxcTF27txplizZnduKFStw7tw5wbGxY8eiZ8+ecqvSQeM8O3fuLCjFMR5eNm3axP3u06dPo+jU197Wu3dv0fkXLFiArVu3GkxTWloKKysrdOzYUbJ99zP8OaZmh0WSpVvi/7l27Ro5OzsLeoisrKwabQS1ZjDgtGnTLKajrq7ObBmm9tbJoVsfjdF72FR4enoSALKxsaGysrJG0RkQECB4B1xcXETfu6qqKnJ0dKRPP/3UaNqCggJzTb3vKCws5K5bu3btzJIla8ntnXfewe3btwXHBg4ciMDAQDnVNEh5eTkAyDrPLiUlBS+99BKio6Ph4+MDGxsbuLm5ITIyEu+88w5yc3NFy0pKSkKPHj1gZ2eHgIAAPPvss/j7778bTF9UVIT58+ejV69ecHd3h42NDfz8/NCnTx+899573PmawpEjR5CYmAgvLy84OzsjNjZWUMoxxpIlS+Dt7Q1fX1/s2bPHZDssSXZ2Nq5duwYACAwMhJOTk8V15uXl6USaldLe9uuvv6KiokJUNdbX19cUE+9rfHx8uJ7gS5cuIT8/33RhMjlcys/P15n+BIB2794tlwqjqNVqysrKMrskUl9fT6tXr6b27dsTAHJ0dKQpU6bQ+vXrad++ffTZZ59Rv379uBLB9OnTjc5TnDNnDimVSpo5cybt3r2bnn76aQJA9vb29NtvvwnSlpWV0bx588jR0ZG6du1KCxcupM2bN9O+ffvok08+4Uojvr6+tHfvXsnn989//pOsra1p0qRJtG3bNvruu++4aXFvvvmm0fxr1qwR3GMPDw+6c+eOZDssjWYUPwAaPXp0o+j84YcfdN6BJUuWiM4/atQoWWcyPIgMHjyYu3br1683WY5szm3JkiU6N9XT09NiVSlLkZmZSTExMdw5TJ48ucHJ959++inn0KOjoxus9uzfv58A0Ndff80dKysrI1tbWwJA3t7edO3aNSK6FwggKCiI3N3dGxxJn5mZyc2RdHd3p6KiItHnt2jRInJwcKCdO3cKjg8YMIBrRjh69KhBGYMGDdK519ry7gfGjx/P2ffee+81is4pU6boXJtTp06JynvgwAFSKBSUmJhoYSvvb95++23u2v3jH/8wWY5szk070gcAeumll+QS3yhs376d7O3tuRLVDz/8YDQP/2EeMWKE3jTR0dEUExOjc5zfNvP1119TTk4O+fn5Ue/evSk/P9+g3v79+3N5n3vuOVHnd+zYMVIoFLRu3Tqd/wYOHMjJM1Z64z98mm358uWibGhMIiIiOPs2bNjQKDo1pX3N5urqKuoDf/bsWW6EvpwzGR5EvvrqK+769enTx2Q5sji33NxcnYcdAO3Zs0cO8Y3CqlWrSKFQEABSKpX0yy+/iMp3/vx5Lh/0zGe9dOkSAfoDCvr4+HD5+vfvT0FBQdSvXz9RVZLXX3+dy9uxY0dRtvbs2ZP69++v9z/+JG9jJQe1Wk1RUVGCe/3555+LsqExcXV15ezbt2+fxfXl5eXpvAMxMTGUmZkp2DIyMujkyZN08OBBSkpKosTEREGTTnp6usVtvZ/ZsWMHdy0CAgJMliOLc1u0aJHOTVUqlQ9MKJaNGzea3EZCJJzT2qNHD8F/H374IbVs2VInovDdu3d12ig7dOggej4sv/RkbW1t9FofPnyYANDhw4d1/issLBREbHn22WeN6r9w4YIggvLGjRtF2d1Y3Lp1S3Bt5Qg1ZIy1a9fq/chL2aT0rDZX+EEwbGxsTG5/lGVFjEOHDukce/TRR+Hg4CCHeIuSkZGBKVOmcPvx8fF47bXXJMkICAjA2bNnAQDHjx9HQUEB/Pz8ANwbZ9W3b1+dCKPp6emCiKpKpRI//fST6PmwxcXF3O/6+nrU1NQYTL9kyRKEhYUhOjpa578ff/wRxAvIrC+NNgEBAZg/fz5mzZoFAAgODjaYvq6uDrm5uSguLsa1a9dw/fp13Lx5EyEhIRg2bJhRfVLRniFg7hoJYtA3eHfy5Mk67wH9f5TdmzdvIisrC9nZ2dx/cs9kEEtFRQUuXLiAkpISXLt2DSUlJbh9+zaGDh2K7t27N6ot/F7g2tpaFBQUmDYTQw5P6+fnp/MFev311+UQbVGqqqp02ki0ey7FMHnyZIEMTQ9PUVGRTkeCho8++kiQR2rsOU2UC8B4TK8bN26QQqGgTz75RO//jz76qKDEff36dVE2aJojbGxs6O7duwbTjh49Wm9JZdiwYaJ0SWXv3r0CPcXFxRbRw6dDhw4CnV5eXqLy7dq1i2vaWLp0qSy2XL16lVJTU0WPHND0wGtvX3zxhSz2SKGiokJgw7Fjx0ySY/YnoqqqipsKwqdr167mirY4y5Ytw4ULF7j9nj17ShpJrkF7bJ/mepw8eRJWVlbclBI+2qPYpZQW1Wo1/vrrL27f2BKHaWlpqK+vx6hRo3T+O3v2LNLS0rj9xMRE0SsptW3bFtbW1ggMDIStra3BtO+//z7WrVuHJUuWCNKacr3FUFFRIdi3dMmtoKBAZ8yj2PnNgwcPxmOPPQZAnuuxZcsWtG3bFr169cLcuXNF5/n+++8xY8YMwXFL3R9D2NvbC/arqqpME2Sul+WPKOZvxoYTNDXXr1/XmU2RlJRkkixNFFHNNnfuXCL637g7bWpqaqhFixaSOwQ0aIaWaLbp06cbTK9WqxsMDjp79myBrJ9++km0HWq1mqytrenFF18Unae+vl5w3eVafUqbdevWcTpsbW0toqMhfZpt5cqVovMPHTqU3NzcZGlva9euHWdD7969JeVNT0/n8rq6ujbZ7BXNMCkAojv3tDG75KaJTqBNY0YrKCsrk+zdv/rqK0GJy8bGBkOGDJGsu7a2VmeFI09PTwD32tH0tUWlp6cLZhfExcVJ0qk9I6B///4G0yuVSoSEhOgcJyKsX7+e23dzc0NiYqJoOy5cuID6+npJk8KzsrK46+7q6mqxEn5lZSX3u6na26REpiksLER8fLws7W2akrxSqcTMmTMl5eUvYB4XF9cose/0wS+9aZfCxWL2lWxoSovmBW8MHnvsMXzwwQeS8mzevFmwHx8fDzc3N8m6MzMzBRFQAOORGrRfBKlFf75zUyqVJkecOHToEPLy8rj9ESNGQKVSic5/5MgRANKcM//cY2NjLdZ4rlAouN/mhs4Rg3YzQ6tWrYx2smioqalBZmambFXATZs2Yd26dcjMzJT0sQKE96cpw4bx3ykbG9P6Pc1+sjw9PXW8u42NjckGSeXUqVPIzMxEeHi46Dw5OTnIyMgQHJP6EGg4ceKEzrF27doZzHPgwAHBvpSHOi8vT9DeFhMTgxYtWojOz0fbwT/11FOS8h88eBDdunWTNMeR//LIHQaID7+HsqHahVwUFhYiJydHcCw+Pl50qefChQu4e/eubHOi3dzcMHbsWHTq1ElyXr6TtuT9MURNTY2gJmbqqAuznZtmIjmf2tpa0xsBJfLvf/8bLi4ukhZeTklJ0TnGD1EuheTkZMG+r6+vICKwNrW1tTh8+DC3HxgYKMk5bN68WTBsY/To0RKsFfLzzz9zv93c3CSFBKqtrcXOnTvx9NNPS9L5xx9/cL8tWTLgvxC1tbWCaqrc6AtxJOXcgoKCcPny5UYJpGmIrKwslJSUALhXlW/sISAabt26JdhvMucGAF26dNE5ponGYElKSkqQlJSEKVOm6PSwGIJfFQPuxW83JQS0Wq3G3r17BcdGjhxp8It94sQJQXub1KoIP3KHQqHAiBEjJOXXkJGRIejlHjBggKTS9sGDB3Hz5k1Jpb2srCzuuXB2djb4ETAX7dKsdo+2nMixXoK/v79M1phOYzUZGEP7Xjk6OpokRxbr9VXprl69Kodog3z00UewtrbmBpKKRdu5devWzehQBn0cOHAAd+7cERwbO3aswTza7W1SvvCXLl3C8ePHuf2EhAST2zb5pUdAupNNSkpCWFiYpGCJ/HOPiYmx6Muj3e5pyaqp9j11d3dH586dLabPUtwv7W3aJbdHHnnEJDmyNIwNHjwYb731luBYSkoKevXqJYd4vaSlpWHZsmX44IMP4OXlJSmvWq0W7JvSNgEAa9asEewPGTLE6DlrvwhSGuPXrl0r2B83bpxOGiLCjBkzMGvWLIM91qmpqYJ9KSWNkpIS/Pjjj1i5cqXoPEDD7TlVVVU4fPgwLl68iJqaGnTq1AmhoaFo1aqVJPl82rRpA2tra24WiKVKblevXtWJPC2lvU0O6urqsG/fPmRnZ6N169bo27cvF3JfCvwmA/79KS4uxvHjx3Hx4kU4OTmhU6dOCAsLs9gMJP69cnR0NP05kGtcCn/EPACKj4+XS7QOVVVV1LlzZwoPD6eamhrJ+WfOnGnW7ACiexPi+RPmFQqF3jFtfNRqNTk6Opo8vo0/At7Ozk5vKKbffvuNAFBGRoZBWX369BHMSpAynmnhwoXk5+dnNIadNl5eXoK5nhUVFfTWW2+Rq6srPfLII5SYmEhxcXGkUqnI1taWZs6caVZcs0ceeYTTl5ycbLIcQ2zYsEFnfNuyZcssoksf586do8DAQPL396fExESytbWlVq1aSY7zl5WVxdnv5OREtbW1dOnSJXrmmWfIzs6OgoKCaPjw4dS9e3du9sV//vMfi5zT1q1bOVu6dOlishzZnJv2wFKFQkG5ublyiedQq9WUmJhIbm5uJstfvXq1wNZXX31Vsozp06cLZMyZM8doniNHjgjyTJ06VbQ+zQrjmu2pp57Sm27SpEnUvn17o/LCwsI4Wf7+/qLtKCkpIWdnZ8nBBbRfnoyMDAoMDKTY2Fg6ceKEIO2BAwdkmcYXGxtr0oBaKbz00ks6zs1SA5O1uXLlCrVp04ZmzpzJfeRffvllbkpeaWmpaFkrV67k7B80aBD9/PPP5OrqSpMmTaLCwkJB2vfee4+Ae7H/fv75Z1nPiYjoX//6F2eLOYtOy7qGAj/GGAAaOXKknOKptraWRo4cSSqVyqwQNleuXBHYOXjwYEn5MzIyuLhvAGjgwIGiRpZ/+OGHAr3ff/+9aJ1z5swR5NUOrUREVFlZSU5OTqLmJ/bt25eTFRoaKtqOadOmkY+PD5WXl4vOQySM0dWxY0fy8fGh1157rcH03bp142YX3Lp1S5IuDTNmzOB0zpgxwyQZxggKChLcF7Hx28ylrq6OunfvrvOOTZ061aSR/ZrI0AAoKiqK7O3tafPmzXrT3rx5k0vbq1cvs85DH/wPxrvvvmuyHFmd29WrVwVVAQC0ZcsWWWTfvHmThg8fTiqVinbs2GG2PH5wxg4dOojOd+fOHQoMDOTyBgUFiQ5TpO38//77b9F6+aGXHRwc9FYJly5dSk5OTg1GDubDn+wvdoL3oUOHSKlUmhSnj//yAMYDmSYkJHBpU1NTJesj+t+CQQAajGNnDvqmHg4dOlR2Pfr44YcfyM7OjovgrEFTbQRABw4cEC3P29tbcB6GgnvW1dVx4brs7OxMPYUG4Ze4f/31V5PlyOrciO7NTXNwcOCMs7W1pf3795slc+/eveTn50fu7u6yBcDURKXVFK/FvECVlZX0xBNPCL5wYiNoaLe3SQ3C98wzz3B5w8LCdP4vKSkhFxcXmj17tih527dvFzzMxkKV5+fnk5eXl8HSliH4L09oaKjRKCL8KMWmVvOKi4slO3AprFq1Sse5ffDBB7Lr0UdwcDBNmDBBcCwjI4Ozo0WLFqLjKZ49e1ZwDi+//LLB9Pyaj4uLi8nn0BBubm4E3Is2I7WGwEd250Z0r33I19eXuwAqlYo+/vhjycX18+fP0+TJk8nKyooee+wxunLliqx2fvzxx5yNPXr0MGhfYWEhRUZGculHjx5NlZWVonWlpaUJHqDJkydLsvWzzz7j8mqHCVKr1TRs2DBq3769aJtqamqoS5cunMxZs2Y1mPbixYvUvXt3Cg8PN+qU9JGdnc3psbKy0mlj06aqqopbIwKAWUvy8UvZOTk5JsvR5syZM4JIyppt3LhxFl/cpbS0lBQKBaWkpAiOT5s2jbNjypQpouV9/fXXXD4fHx+ji/3s27ePSx8eHm7SOTQEv222Z8+eZsmyiHMjuldFjYuLE9z4zp070zfffGPwYa2srKQ9e/bQ008/TdbW1uTh4UFLliwxqVdUDIsWLeKi0Pbp00fHgd66dYvef/99LmS1v7+/SY2oy5cvF1wLfesYGKK0tJSLm9e9e3eud7OsrIwSExPJw8ODMjMzJck8c+YM14NpY2Oj01ZXX19PGzZsIGdnZ+rVq5fo6rc2/JdHTEx8fiy2wMBAk3RqeOGFFzhZq1evNknGihUraMCAARQbG0uRkZE6TS/am4ODAwUHB1NUVBTFx8dTQkICDRs2TNZnWLtUVllZSS4uLpwNR44cES2LXytYsGCB0fRz587l0kuJCCOGL7/8kpMtppPOEBZzbhq2b99OoaGhgpuvUCgoIiKCJk6cSG+88Qa98cYbNGHCBIqPj+dCnXh4eND8+fNFtR+Zy8GDB7mhLCqViiIiImjUqFEUFhbG2RMZGUnLly83OXT6smXLBNWyqqoqyTJSU1O56lpwcDANHTqUnJ2dKSIiwujQj4bIy8ujp556inPw3t7eNGjQIBo2bBi1bt2aHBwc6N1339UJky6FMWPGcOcuZq2FN998k0tvLJyTMf744w9OlnY1TiwjRowgKysrUiqV1KJFC3J3dyc/Pz8KCAigwMBACgkJocDAQGrfvj21bt2aPD09ycXFhezt7cnGxoasrKyoU6dOFvtAEwmXFAwJCZGUl18CFbN+A78Gs3XrVlNN1suoUaM42WfPnjVLlhURb6KihSAipKSkYPfu3UhOTsZff/2Furo6QRpbW1u0bt0a/fr1w8iRI5GQkCCI7NAY5OTkYO/evbhy5QrKysrQunVrtG3bFpGRkWYvLF1dXY3Vq1fj+vXreP75501eULeiogLbtm3D6dOn4eDggB49eiAxMdHs0f4FBQX49ddfcfnyZRQVFcHZ2RnBwcEYPnw4WrZsaZZsX19fbsbK8ePHERkZaTB9hw4duCCiycnJGDBggFn6g4ODkZ2dDVdXVxQXF+uEfG8OJCQkcIOkFy9eLDrUUU5ODvdst2zZEqWlpQafpby8PPj7+4OIYGtri+LiYtlCSqnVanh7e6O0tBRRUVFc1BmTkcHZSqauro6Ki4vpr7/+ovT0dCouLm6yoHgMy3Lu3DlBI7ex0suJEye49O7u7rKUdhYvXszJ3LVrl9ny7jfOnz/PlbyVSqWkkOr8hasHDhxoND3/Wj755JPmmK0Df/DuqlWrzJbXJDNjra2t4enpia5duyI8PFxv2CRG84A/5So6Otro5Px169Zxv0ePHi1Ir1arTQrIMHHiRC5O3caNGyXnv9/59ttvuUgxw4cPF8w3rq2tRVFRUYN5+fdHzFRA/v3RnkddWlpqcmBJ4H/TC+3t7SVHm9GL+f6WwWiYsWPHcl/jjz76yGBatVotWKhEezm+V155RVTpwpAdjo6OdOPGDZNk3I/U1NQI2sy0h129/fbbBgfa8kc1GFsa4M8//+TSurq66vScd+nShT7++GOTzqOkpIRUKhUB5q0yz4c5N4ZFkfLybNu2jUvbtWtXwX8VFRXk7OxMn332mUl25OTkcMNLxPQIPijwe5bbtWsnaN6pqakhLy8veuedd/TmzcnJkdRk8OqrrzbY0ZOSkkIA6Pjx4yadh2YGjr29PRUUFJgkQ5umCdjEeCjIzc1FYWEhgHvx1Yx1JPADf44ZM0bw39q1a6FQKPDiiy+aZEvHjh3xwgsvAACWL19u0eCVjQm/0X3MmDGC5p2tW7eivLwcr776qt68/CppTEyM0SYDQ/fnyy+/xOOPP270HuujtLQUK1asAABMnz7d5M42bZhzY1gM7eCHxl4eOzs77jc/Cmx+fj5mz56NuXPnNrhmhxgWLFgAT09PXL9+XXK4pvsV/qgD/jW7ceMGXnvtNcyaNQseHh568/Lvj5h4fvz7061bN+73rl27sGXLFixcuFCK6RxLly7FnTt30KZNG8ybN88kGXqRpfzHYOiB394mpjr522+/cb1+moWts7OzKSQkRNKIe0Ns3ryZa3uTMrf3fuXEiRPcNELN4t+XL1+miIgIeuaZZwyOQuAvpi6mOvnuu+9y6TWRQnbs2EEuLi60Zs0ak+zPycnhglDs3LnTJBkNwZwbw2JMnDiRGxicn58vKs/SpUvJ3t6e7OzsKCwsjJRKJT3//POyTmmaMGECAaAnnnhCNplNyXfffUdOTk6kUqkoPDycVCoVTZgwwWC8vfr6emrbti0BoLi4OFFDsWpqamj8+PEE3Jur27FjR3JycqKvvvrKJLvr6+u5WUxydSLwaZRBvIyHk7t37yI5ORmRkZGSQkUXFRXh2LFjqK6uRmRkJAICAmS1q7KyEj179kRmZia+//57TJgwQVb5TcGNGzdw7NgxlJWVISIiQlT49+LiYqSkpGDAgAGSVlDLzs7G6dOn0aJFC0RFRcHd3d0km7/88ktMmzYNEREROHz4sEmh/g3BnBvjoeTSpUuIjo7GrVu3cODAAYuGxGfocvjwYfTt2xdeXl44evSobJ0IfJhzYzy0nD59Gn369IFSqURqaqrR9WYZ8pCbm4tevXpBoVDg999/F714tVRYbynjoSU0NBT79+8HcG8Ftxs3bjSxRc2f63g53jMAAACzSURBVNevIzExEfb29hZ1bABzboyHnLCwMKSlpaFFixaYM2dOU5vT7HnllVfg7e2NtLQ0izo2gFVLGQwAQH19PcrLy82OgMIwTFlZGZycnBplLjlzbgwGo1nCqqUMBqNZwpwbg8FoljDnxmAwmiXMuTEYjGYJc24MBqNZwpwbg8FoljDnxmAwmiXMuTEYjGYJc24MBqNZwpwbg8FoljDnxmAwmiXMuTEYjGYJc24MBqNZ8n8uEt6JcWViBAAAAABJRU5ErkJggg==;strokeColor=none;strokeWidth=0;points=[];labelBackgroundColor=none;rounded=0;html=1;whiteSpace=wrap;" parent="De4PDz4b7LUJne9OW4_j-1" vertex="1">
            <mxGeometry x="182.869754601227" y="342.36430111559014" width="119.62118558690743" height="35.748860060455094" as="geometry" />
          </mxCell>
        </UserObject>
        <UserObject label="" tags="Background" id="p8jLqkasfTIFGXJYe00s-40">
          <mxCell style="vsdxID=40;edgeStyle=none;startArrow=none;endArrow=block;startSize=5;endSize=5;strokeWidth=1;spacingTop=0;spacingBottom=0;spacingLeft=0;spacingRight=0;verticalAlign=middle;html=1;labelBackgroundColor=#ffffff;rounded=0;exitX=1;exitY=0.5;exitDx=0;exitDy=0;exitPerimeter=0;entryX=0;entryY=0.5;entryDx=0;entryDy=0;entryPerimeter=0;" parent="De4PDz4b7LUJne9OW4_j-1" source="p8jLqkasfTIFGXJYe00s-37" target="p8jLqkasfTIFGXJYe00s-10" edge="1">
            <mxGeometry relative="1" as="geometry">
              <mxPoint x="-31" y="77" as="offset" />
              <Array as="points">
                <mxPoint x="371.0606065731814" y="360.2387425392957" />
                <mxPoint x="371.0606065731814" y="295.35452017124464" />
              </Array>
            </mxGeometry>
          </mxCell>
        </UserObject>
        <UserObject label="" tags="Background" id="p8jLqkasfTIFGXJYe00s-41">
          <mxCell style="vsdxID=41;edgeStyle=none;startArrow=none;endArrow=block;startSize=5;endSize=5;strokeWidth=1;spacingTop=0;spacingBottom=0;spacingLeft=0;spacingRight=0;verticalAlign=middle;html=1;labelBackgroundColor=#ffffff;rounded=0;exitX=1.0053763440860215;exitY=0.5;exitDx=0;exitDy=0;exitPerimeter=0;entryX=0;entryY=0.5;entryDx=0;entryDy=0;entryPerimeter=0;" parent="De4PDz4b7LUJne9OW4_j-1" source="p8jLqkasfTIFGXJYe00s-10" target="p8jLqkasfTIFGXJYe00s-4" edge="1">
            <mxGeometry relative="1" as="geometry">
              <mxPoint x="-7" y="116" as="offset" />
              <Array as="points">
                <mxPoint x="680.096742243646" y="295.6157620074373" />
                <mxPoint x="680.096742243646" y="360.4999843754883" />
                <mxPoint x="696.266278439965" y="360.4999843754883" />
                <mxPoint x="696.266278439965" y="360.4999843754883" />
              </Array>
            </mxGeometry>
          </mxCell>
        </UserObject>
        <mxCell id="p8jLqkasfTIFGXJYe00s-42" parent="De4PDz4b7LUJne9OW4_j-1" vertex="1">
          <mxGeometry x="1568.83" y="280.4912346489172" as="geometry" />
        </mxCell>
        <UserObject label="" tags="Background" id="p8jLqkasfTIFGXJYe00s-43">
          <mxCell style="vsdxID=42;edgeStyle=none;startArrow=none;endArrow=block;startSize=5;endSize=5;strokeWidth=1;spacingTop=0;spacingBottom=0;spacingLeft=0;spacingRight=0;verticalAlign=middle;html=1;labelBackgroundColor=#ffffff;rounded=0;exitX=1.037037037037037;exitY=0.5185185185185185;exitDx=0;exitDy=0;exitPerimeter=0;" parent="De4PDz4b7LUJne9OW4_j-1" source="p8jLqkasfTIFGXJYe00s-33" target="p8jLqkasfTIFGXJYe00s-42" edge="1">
            <mxGeometry relative="1" as="geometry">
              <mxPoint x="-22" y="101" as="offset" />
              <Array as="points">
                <mxPoint x="1537.5908960560912" y="280.4912346489172" />
                <mxPoint x="1537.5908960560912" y="280.4912346489172" />
              </Array>
            </mxGeometry>
          </mxCell>
        </UserObject>
        <UserObject label="" tags="Background" id="p8jLqkasfTIFGXJYe00s-44">
          <mxCell style="vsdxID=43;edgeStyle=none;startArrow=none;endArrow=block;startSize=5;endSize=5;strokeWidth=1;spacingTop=0;spacingBottom=0;spacingLeft=0;spacingRight=0;verticalAlign=middle;html=1;labelBackgroundColor=#ffffff;rounded=0;exitX=1.0080645161290323;exitY=0.5;exitDx=0;exitDy=0;exitPerimeter=0;entryX=0;entryY=0.504950495049505;entryDx=0;entryDy=0;entryPerimeter=0;" parent="De4PDz4b7LUJne9OW4_j-1" source="p8jLqkasfTIFGXJYe00s-4" target="p8jLqkasfTIFGXJYe00s-9" edge="1">
            <mxGeometry relative="1" as="geometry">
              <mxPoint x="-7" y="80" as="offset" />
              <Array as="points">
                <mxPoint x="888.8707538124453" y="360.2387425392957" />
                <mxPoint x="888.8707538124453" y="360.2387425392957" />
                <mxPoint x="893.2018795793164" y="360.2387425392957" />
                <mxPoint x="893.2018795793164" y="279.08877847567265" />
              </Array>
            </mxGeometry>
          </mxCell>
        </UserObject>
        <UserObject label="" tags="Background" id="p8jLqkasfTIFGXJYe00s-45">
          <mxCell style="vsdxID=44;edgeStyle=none;startArrow=none;endArrow=block;startSize=5;endSize=5;strokeWidth=1;spacingTop=0;spacingBottom=0;spacingLeft=0;spacingRight=0;verticalAlign=middle;html=1;labelBackgroundColor=#ffffff;rounded=0;exitX=1.010204081632653;exitY=0.53125;exitDx=0;exitDy=0;exitPerimeter=0;entryX=0;entryY=0.5185185185185185;entryDx=0;entryDy=0;entryPerimeter=0;" parent="De4PDz4b7LUJne9OW4_j-1" source="p8jLqkasfTIFGXJYe00s-6" target="p8jLqkasfTIFGXJYe00s-33" edge="1">
            <mxGeometry relative="1" as="geometry">
              <mxPoint x="-15" y="101" as="offset" />
              <Array as="points">
                <mxPoint x="1448.2597084136723" y="280.4912346489172" />
                <mxPoint x="1448.2597084136723" y="280.4912346489172" />
              </Array>
            </mxGeometry>
          </mxCell>
        </UserObject>
        <UserObject label="" tags="Background" id="p8jLqkasfTIFGXJYe00s-46">
          <mxCell style="vsdxID=45;edgeStyle=none;startArrow=none;endArrow=block;startSize=5;endSize=5;strokeWidth=1;spacingTop=0;spacingBottom=0;spacingLeft=0;spacingRight=0;verticalAlign=middle;html=1;labelBackgroundColor=#ffffff;rounded=0;exitX=1;exitY=0.5;exitDx=0;exitDy=0;exitPerimeter=0;entryX=0;entryY=0.5;entryDx=0;entryDy=0;entryPerimeter=0;" parent="De4PDz4b7LUJne9OW4_j-1" source="p8jLqkasfTIFGXJYe00s-36" target="p8jLqkasfTIFGXJYe00s-10" edge="1">
            <mxGeometry relative="1" as="geometry">
              <mxPoint x="-31" y="130" as="offset" />
              <Array as="points">
                <mxPoint x="371.0606065731814" y="215.86825411705885" />
                <mxPoint x="371.0606065731814" y="296.1657448204744" />
              </Array>
            </mxGeometry>
          </mxCell>
        </UserObject>
        <UserObject label="" tags="Background" id="p8jLqkasfTIFGXJYe00s-47">
          <mxCell style="vsdxID=46;edgeStyle=none;startArrow=none;endArrow=block;startSize=5;endSize=5;strokeWidth=1;spacingTop=0;spacingBottom=0;spacingLeft=0;spacingRight=0;verticalAlign=middle;html=1;labelBackgroundColor=#ffffff;rounded=0;exitX=1.0053763440860215;exitY=0.5;exitDx=0;exitDy=0;exitPerimeter=0;entryX=0;entryY=0.5;entryDx=0;entryDy=0;entryPerimeter=0;" parent="De4PDz4b7LUJne9OW4_j-1" source="p8jLqkasfTIFGXJYe00s-10" target="p8jLqkasfTIFGXJYe00s-3" edge="1">
            <mxGeometry relative="1" as="geometry">
              <mxPoint x="-7" y="77" as="offset" />
              <Array as="points">
                <mxPoint x="680.096742243646" y="295.6157620074373" />
                <mxPoint x="680.096742243646" y="205.47357895065778" />
              </Array>
            </mxGeometry>
          </mxCell>
        </UserObject>
        <UserObject label="" tags="Background" id="p8jLqkasfTIFGXJYe00s-48">
          <mxCell style="vsdxID=47;edgeStyle=none;startArrow=none;endArrow=block;startSize=5;endSize=5;strokeWidth=1;spacingTop=0;spacingBottom=0;spacingLeft=0;spacingRight=0;verticalAlign=middle;html=1;labelBackgroundColor=#ffffff;rounded=0;exitX=1.008695652173913;exitY=0.5;exitDx=0;exitDy=0;exitPerimeter=0;entryX=0;entryY=0.504950495049505;entryDx=0;entryDy=0;entryPerimeter=0;" parent="De4PDz4b7LUJne9OW4_j-1" source="p8jLqkasfTIFGXJYe00s-3" target="p8jLqkasfTIFGXJYe00s-9" edge="1">
            <mxGeometry relative="1" as="geometry">
              <mxPoint x="-16" y="124" as="offset" />
              <Array as="points">
                <mxPoint x="893.4081236634531" y="206.24355488890973" />
                <mxPoint x="893.4081236634531" y="280.13374582044315" />
              </Array>
            </mxGeometry>
          </mxCell>
        </UserObject>
        <mxCell id="p8jLqkasfTIFGXJYe00s-49" parent="De4PDz4b7LUJne9OW4_j-1" vertex="1">
          <mxGeometry x="45.37369851007888" y="290.11593387706637" as="geometry" />
        </mxCell>
        <UserObject label="" tags="Background" id="p8jLqkasfTIFGXJYe00s-50">
          <mxCell style="vsdxID=48;edgeStyle=none;startArrow=none;endArrow=block;startSize=5;endSize=5;strokeWidth=1;spacingTop=0;spacingBottom=0;spacingLeft=0;spacingRight=0;verticalAlign=middle;html=1;labelBackgroundColor=#ffffff;rounded=0;entryX=0;entryY=0.5;entryDx=0;entryDy=0;entryPerimeter=0;" parent="De4PDz4b7LUJne9OW4_j-1" source="p8jLqkasfTIFGXJYe00s-49" target="p8jLqkasfTIFGXJYe00s-36" edge="1">
            <mxGeometry relative="1" as="geometry">
              <mxPoint x="-41" y="74" as="offset" />
              <Array as="points">
                <mxPoint x="101.14209886064856" y="290.11593387706637" />
                <mxPoint x="101.14209886064856" y="216.25324208618483" />
              </Array>
            </mxGeometry>
          </mxCell>
        </UserObject>
        <mxCell id="p8jLqkasfTIFGXJYe00s-51" parent="De4PDz4b7LUJne9OW4_j-1" vertex="1">
          <mxGeometry x="45.37369851007888" y="290.11593387706637" as="geometry" />
        </mxCell>
        <UserObject label="" tags="Background" id="p8jLqkasfTIFGXJYe00s-52">
          <mxCell style="vsdxID=49;edgeStyle=none;startArrow=none;endArrow=block;startSize=5;endSize=5;strokeWidth=1;spacingTop=0;spacingBottom=0;spacingLeft=0;spacingRight=0;verticalAlign=middle;html=1;labelBackgroundColor=#ffffff;rounded=0;entryX=0;entryY=0.5;entryDx=0;entryDy=0;entryPerimeter=0;" parent="De4PDz4b7LUJne9OW4_j-1" source="p8jLqkasfTIFGXJYe00s-51" target="p8jLqkasfTIFGXJYe00s-37" edge="1">
            <mxGeometry relative="1" as="geometry">
              <mxPoint x="-41" y="128" as="offset" />
              <Array as="points">
                <mxPoint x="101.14209886064856" y="290.11593387706637" />
                <mxPoint x="101.14209886064856" y="361.43495515765136" />
              </Array>
            </mxGeometry>
          </mxCell>
        </UserObject>
        <UserObject label="" tags="Background" id="p8jLqkasfTIFGXJYe00s-53">
          <mxCell style="vsdxID=50;edgeStyle=none;startArrow=none;endArrow=block;startSize=5;endSize=5;strokeWidth=1;spacingTop=0;spacingBottom=0;spacingLeft=0;spacingRight=0;verticalAlign=middle;html=1;labelBackgroundColor=#ffffff;rounded=0;exitX=1;exitY=0.504950495049505;exitDx=0;exitDy=0;exitPerimeter=0;entryX=0;entryY=0.5;entryDx=0;entryDy=0;entryPerimeter=0;" parent="De4PDz4b7LUJne9OW4_j-1" source="p8jLqkasfTIFGXJYe00s-9" target="p8jLqkasfTIFGXJYe00s-5" edge="1">
            <mxGeometry relative="1" as="geometry">
              <mxPoint x="-18" y="102" as="offset" />
              <Array as="points">
                <mxPoint x="1093.2998900087641" y="279.1162776163245" />
                <mxPoint x="1093.2998900087641" y="279.1162776163245" />
              </Array>
            </mxGeometry>
          </mxCell>
        </UserObject>
        <UserObject label="" tags="Background" id="p8jLqkasfTIFGXJYe00s-54">
          <mxCell style="vsdxID=51;edgeStyle=none;startArrow=none;endArrow=block;startSize=5;endSize=5;strokeWidth=1;spacingTop=0;spacingBottom=0;spacingLeft=0;spacingRight=0;verticalAlign=middle;html=1;labelBackgroundColor=#ffffff;rounded=0;exitX=1.011111111111111;exitY=0.53125;exitDx=0;exitDy=0;exitPerimeter=0;entryX=0;entryY=0.53125;entryDx=0;entryDy=0;entryPerimeter=0;" parent="De4PDz4b7LUJne9OW4_j-1" source="p8jLqkasfTIFGXJYe00s-5" target="p8jLqkasfTIFGXJYe00s-6" edge="1">
            <mxGeometry relative="1" as="geometry">
              <mxPoint x="-17" y="102" as="offset" />
              <Array as="points">
                <mxPoint x="1267.974879666959" y="280.4912346489172" />
                <mxPoint x="1267.974879666959" y="280.4912346489172" />
              </Array>
            </mxGeometry>
          </mxCell>
        </UserObject>
        <mxCell id="p8jLqkasfTIFGXJYe00s-55" parent="De4PDz4b7LUJne9OW4_j-1" vertex="1">
          <mxGeometry x="45.37369851007888" y="290.11593387706637" as="geometry" />
        </mxCell>
        <UserObject label="" tags="Background" id="p8jLqkasfTIFGXJYe00s-56">
          <mxCell style="vsdxID=52;edgeStyle=none;startArrow=none;endArrow=block;startSize=5;endSize=5;strokeWidth=1;spacingTop=0;spacingBottom=0;spacingLeft=0;spacingRight=0;verticalAlign=middle;html=1;labelBackgroundColor=#ffffff;rounded=0;entryX=0.5185185185185185;entryY=1;entryDx=0;entryDy=0;entryPerimeter=0;" parent="De4PDz4b7LUJne9OW4_j-1" source="p8jLqkasfTIFGXJYe00s-55" target="p8jLqkasfTIFGXJYe00s-33" edge="1">
            <mxGeometry relative="1" as="geometry">
              <mxPoint x="-521" y="-1" as="offset" />
              <Array as="points">
                <mxPoint x="74.23412068361087" y="290.11593387706637" />
                <mxPoint x="74.23412068361087" y="440.00000000000006" />
                <mxPoint x="1488.5185536371605" y="440.00000000000006" />
              </Array>
            </mxGeometry>
          </mxCell>
        </UserObject>
      </root>
    </mxGraphModel>
  </diagram>
</mxfile>
